G04 #@! TF.GenerationSoftware,KiCad,Pcbnew,(5.1.5)-3*
G04 #@! TF.CreationDate,2021-09-12T13:17:19-04:00*
G04 #@! TF.ProjectId,EtherTenFuranceMonitorRev2,45746865-7254-4656-9e46-7572616e6365,rev?*
G04 #@! TF.SameCoordinates,Original*
G04 #@! TF.FileFunction,Legend,Bot*
G04 #@! TF.FilePolarity,Positive*
%FSLAX46Y46*%
G04 Gerber Fmt 4.6, Leading zero omitted, Abs format (unit mm)*
G04 Created by KiCad (PCBNEW (5.1.5)-3) date 2021-09-12 13:17:19*
%MOMM*%
%LPD*%
G04 APERTURE LIST*
%ADD10C,0.165100*%
%ADD11C,0.203200*%
%ADD12C,0.121920*%
%ADD13C,0.152400*%
G04 APERTURE END LIST*
D10*
X143964852Y-107862523D02*
X145171352Y-107862523D01*
X145171352Y-107575261D01*
X145113900Y-107402904D01*
X144998995Y-107287999D01*
X144884090Y-107230546D01*
X144654280Y-107173094D01*
X144481923Y-107173094D01*
X144252114Y-107230546D01*
X144137209Y-107287999D01*
X144022304Y-107402904D01*
X143964852Y-107575261D01*
X143964852Y-107862523D01*
X145171352Y-106770927D02*
X145171352Y-105966594D01*
X143964852Y-106483665D01*
X143964852Y-112942523D02*
X145171352Y-112942523D01*
X145171352Y-112655261D01*
X145113900Y-112482904D01*
X144998995Y-112367999D01*
X144884090Y-112310546D01*
X144654280Y-112253094D01*
X144481923Y-112253094D01*
X144252114Y-112310546D01*
X144137209Y-112367999D01*
X144022304Y-112482904D01*
X143964852Y-112655261D01*
X143964852Y-112942523D01*
X145171352Y-111161499D02*
X145171352Y-111736023D01*
X144596828Y-111793475D01*
X144654280Y-111736023D01*
X144711733Y-111621118D01*
X144711733Y-111333856D01*
X144654280Y-111218951D01*
X144596828Y-111161499D01*
X144481923Y-111104046D01*
X144194661Y-111104046D01*
X144079757Y-111161499D01*
X144022304Y-111218951D01*
X143964852Y-111333856D01*
X143964852Y-111621118D01*
X144022304Y-111736023D01*
X144079757Y-111793475D01*
X172412523Y-84395147D02*
X172412523Y-83188647D01*
X172125261Y-83188647D01*
X171952904Y-83246100D01*
X171837999Y-83361004D01*
X171780546Y-83475909D01*
X171723094Y-83705719D01*
X171723094Y-83878076D01*
X171780546Y-84107885D01*
X171837999Y-84222790D01*
X171952904Y-84337695D01*
X172125261Y-84395147D01*
X172412523Y-84395147D01*
X171320927Y-83188647D02*
X170574046Y-83188647D01*
X170976213Y-83648266D01*
X170803856Y-83648266D01*
X170688951Y-83705719D01*
X170631499Y-83763171D01*
X170574046Y-83878076D01*
X170574046Y-84165338D01*
X170631499Y-84280242D01*
X170688951Y-84337695D01*
X170803856Y-84395147D01*
X171148570Y-84395147D01*
X171263475Y-84337695D01*
X171320927Y-84280242D01*
X144114852Y-113782523D02*
X145321352Y-113782523D01*
X145321352Y-113495261D01*
X145263900Y-113322904D01*
X145148995Y-113207999D01*
X145034090Y-113150546D01*
X144804280Y-113093094D01*
X144631923Y-113093094D01*
X144402114Y-113150546D01*
X144287209Y-113207999D01*
X144172304Y-113322904D01*
X144114852Y-113495261D01*
X144114852Y-113782523D01*
X144114852Y-111944046D02*
X144114852Y-112633475D01*
X144114852Y-112288761D02*
X145321352Y-112288761D01*
X145148995Y-112403665D01*
X145034090Y-112518570D01*
X144976638Y-112633475D01*
D11*
X171361100Y-80238600D02*
X170726100Y-79603600D01*
X170726100Y-79603600D02*
X169456100Y-79603600D01*
X169456100Y-79603600D02*
X168821100Y-80238600D01*
X168821100Y-80238600D02*
X168186100Y-79603600D01*
X168186100Y-79603600D02*
X166916100Y-79603600D01*
X166916100Y-79603600D02*
X166281100Y-80238600D01*
X166281100Y-80238600D02*
X165646100Y-79603600D01*
X165646100Y-79603600D02*
X164376100Y-79603600D01*
X164376100Y-79603600D02*
X163741100Y-80238600D01*
X163741100Y-80238600D02*
X163106100Y-79603600D01*
X163106100Y-79603600D02*
X161836100Y-79603600D01*
X161836100Y-79603600D02*
X161201100Y-80238600D01*
X161201100Y-80238600D02*
X160566100Y-79603600D01*
X160566100Y-79603600D02*
X159296100Y-79603600D01*
X159296100Y-79603600D02*
X158661100Y-80238600D01*
X158661100Y-80238600D02*
X158026100Y-79603600D01*
X158026100Y-79603600D02*
X156756100Y-79603600D01*
X156756100Y-79603600D02*
X156121100Y-80238600D01*
X156121100Y-80238600D02*
X155486100Y-79603600D01*
X155486100Y-79603600D02*
X154216100Y-79603600D01*
X154216100Y-79603600D02*
X153581100Y-80238600D01*
X153581100Y-80238600D02*
X152946100Y-79603600D01*
X152946100Y-79603600D02*
X151676100Y-79603600D01*
X151676100Y-79603600D02*
X151041100Y-80238600D01*
X151041100Y-80238600D02*
X151041100Y-81508600D01*
X151041100Y-81508600D02*
X151676100Y-82143600D01*
X151676100Y-82143600D02*
X152946100Y-82143600D01*
X152946100Y-82143600D02*
X153581100Y-81508600D01*
X153581100Y-81508600D02*
X154216100Y-82143600D01*
X154216100Y-82143600D02*
X155486100Y-82143600D01*
X155486100Y-82143600D02*
X156121100Y-81508600D01*
X156121100Y-81508600D02*
X156756100Y-82143600D01*
X156756100Y-82143600D02*
X158026100Y-82143600D01*
X158026100Y-82143600D02*
X158661100Y-81508600D01*
X158661100Y-81508600D02*
X159296100Y-82143600D01*
X159296100Y-82143600D02*
X160566100Y-82143600D01*
X160566100Y-82143600D02*
X161201100Y-81508600D01*
X161201100Y-81508600D02*
X161836100Y-82143600D01*
X161836100Y-82143600D02*
X163106100Y-82143600D01*
X163106100Y-82143600D02*
X163741100Y-81508600D01*
X163741100Y-81508600D02*
X164376100Y-82143600D01*
X164376100Y-82143600D02*
X165646100Y-82143600D01*
X165646100Y-82143600D02*
X166281100Y-81508600D01*
X166281100Y-81508600D02*
X166916100Y-82143600D01*
X166916100Y-82143600D02*
X168186100Y-82143600D01*
X168186100Y-82143600D02*
X168821100Y-81508600D01*
X168821100Y-81508600D02*
X169456100Y-82143600D01*
X169456100Y-82143600D02*
X170726100Y-82143600D01*
X170726100Y-82143600D02*
X171361100Y-81508600D01*
X171361100Y-81508600D02*
X171361100Y-80238600D01*
X149517100Y-80238600D02*
X148882100Y-79603600D01*
X148882100Y-79603600D02*
X147612100Y-79603600D01*
X147612100Y-79603600D02*
X146977100Y-80238600D01*
X146977100Y-80238600D02*
X146342100Y-79603600D01*
X146342100Y-79603600D02*
X145072100Y-79603600D01*
X145072100Y-79603600D02*
X144437100Y-80238600D01*
X144437100Y-80238600D02*
X143802100Y-79603600D01*
X143802100Y-79603600D02*
X142532100Y-79603600D01*
X142532100Y-79603600D02*
X141897100Y-80238600D01*
X141897100Y-80238600D02*
X141262100Y-79603600D01*
X141262100Y-79603600D02*
X139992100Y-79603600D01*
X139992100Y-79603600D02*
X139357100Y-80238600D01*
X139357100Y-80238600D02*
X138722100Y-79603600D01*
X138722100Y-79603600D02*
X137452100Y-79603600D01*
X137452100Y-79603600D02*
X136817100Y-80238600D01*
X136817100Y-80238600D02*
X136182100Y-79603600D01*
X136182100Y-79603600D02*
X134912100Y-79603600D01*
X134912100Y-79603600D02*
X134277100Y-80238600D01*
X134277100Y-80238600D02*
X133642100Y-79603600D01*
X133642100Y-79603600D02*
X132372100Y-79603600D01*
X132372100Y-79603600D02*
X131737100Y-80238600D01*
X131737100Y-80238600D02*
X131102100Y-79603600D01*
X131102100Y-79603600D02*
X129832100Y-79603600D01*
X129832100Y-79603600D02*
X129197100Y-80238600D01*
X129197100Y-81508600D02*
X129832100Y-82143600D01*
X129832100Y-82143600D02*
X131102100Y-82143600D01*
X131102100Y-82143600D02*
X131737100Y-81508600D01*
X131737100Y-81508600D02*
X132372100Y-82143600D01*
X132372100Y-82143600D02*
X133642100Y-82143600D01*
X133642100Y-82143600D02*
X134277100Y-81508600D01*
X134277100Y-81508600D02*
X134912100Y-82143600D01*
X134912100Y-82143600D02*
X136182100Y-82143600D01*
X136182100Y-82143600D02*
X136817100Y-81508600D01*
X136817100Y-81508600D02*
X137452100Y-82143600D01*
X137452100Y-82143600D02*
X138722100Y-82143600D01*
X138722100Y-82143600D02*
X139357100Y-81508600D01*
X139357100Y-81508600D02*
X139992100Y-82143600D01*
X139992100Y-82143600D02*
X141262100Y-82143600D01*
X141262100Y-82143600D02*
X141897100Y-81508600D01*
X141897100Y-81508600D02*
X142532100Y-82143600D01*
X142532100Y-82143600D02*
X143802100Y-82143600D01*
X143802100Y-82143600D02*
X144437100Y-81508600D01*
X144437100Y-81508600D02*
X145072100Y-82143600D01*
X145072100Y-82143600D02*
X146342100Y-82143600D01*
X146342100Y-82143600D02*
X146977100Y-81508600D01*
X146977100Y-81508600D02*
X147612100Y-82143600D01*
X147612100Y-82143600D02*
X148882100Y-82143600D01*
X148882100Y-82143600D02*
X149517100Y-81508600D01*
X149517100Y-81508600D02*
X149517100Y-80238600D01*
X171361100Y-128498600D02*
X170726100Y-127863600D01*
X170726100Y-127863600D02*
X169456100Y-127863600D01*
X169456100Y-127863600D02*
X168821100Y-128498600D01*
X168821100Y-128498600D02*
X168186100Y-127863600D01*
X168186100Y-127863600D02*
X166916100Y-127863600D01*
X166916100Y-127863600D02*
X166281100Y-128498600D01*
X166281100Y-128498600D02*
X165646100Y-127863600D01*
X165646100Y-127863600D02*
X164376100Y-127863600D01*
X164376100Y-127863600D02*
X163741100Y-128498600D01*
X163741100Y-128498600D02*
X163106100Y-127863600D01*
X163106100Y-127863600D02*
X161836100Y-127863600D01*
X161836100Y-127863600D02*
X161201100Y-128498600D01*
X161201100Y-128498600D02*
X160566100Y-127863600D01*
X160566100Y-127863600D02*
X159296100Y-127863600D01*
X159296100Y-127863600D02*
X158661100Y-128498600D01*
X158661100Y-128498600D02*
X158026100Y-127863600D01*
X158026100Y-127863600D02*
X156756100Y-127863600D01*
X156756100Y-127863600D02*
X156121100Y-128498600D01*
X156121100Y-128498600D02*
X156121100Y-129768600D01*
X156121100Y-129768600D02*
X156756100Y-130403600D01*
X156756100Y-130403600D02*
X158026100Y-130403600D01*
X158026100Y-130403600D02*
X158661100Y-129768600D01*
X158661100Y-129768600D02*
X159296100Y-130403600D01*
X159296100Y-130403600D02*
X160566100Y-130403600D01*
X160566100Y-130403600D02*
X161201100Y-129768600D01*
X161201100Y-129768600D02*
X161836100Y-130403600D01*
X161836100Y-130403600D02*
X163106100Y-130403600D01*
X163106100Y-130403600D02*
X163741100Y-129768600D01*
X163741100Y-129768600D02*
X164376100Y-130403600D01*
X164376100Y-130403600D02*
X165646100Y-130403600D01*
X165646100Y-130403600D02*
X166281100Y-129768600D01*
X166281100Y-129768600D02*
X166916100Y-130403600D01*
X166916100Y-130403600D02*
X168186100Y-130403600D01*
X168186100Y-130403600D02*
X168821100Y-129768600D01*
X168821100Y-129768600D02*
X169456100Y-130403600D01*
X169456100Y-130403600D02*
X170726100Y-130403600D01*
X170726100Y-130403600D02*
X171361100Y-129768600D01*
X171361100Y-129768600D02*
X171361100Y-128498600D01*
X153581100Y-128498600D02*
X152946100Y-127863600D01*
X152946100Y-127863600D02*
X151676100Y-127863600D01*
X151676100Y-127863600D02*
X151041100Y-128498600D01*
X151041100Y-128498600D02*
X150406100Y-127863600D01*
X150406100Y-127863600D02*
X149136100Y-127863600D01*
X149136100Y-127863600D02*
X148501100Y-128498600D01*
X148501100Y-128498600D02*
X147866100Y-127863600D01*
X147866100Y-127863600D02*
X146596100Y-127863600D01*
X146596100Y-127863600D02*
X145961100Y-128498600D01*
X145961100Y-128498600D02*
X145326100Y-127863600D01*
X145326100Y-127863600D02*
X144056100Y-127863600D01*
X144056100Y-127863600D02*
X143421100Y-128498600D01*
X143421100Y-128498600D02*
X142786100Y-127863600D01*
X142786100Y-127863600D02*
X141516100Y-127863600D01*
X141516100Y-127863600D02*
X140881100Y-128498600D01*
X140881100Y-128498600D02*
X140246100Y-127863600D01*
X140246100Y-127863600D02*
X138976100Y-127863600D01*
X138976100Y-127863600D02*
X138341100Y-128498600D01*
X138341100Y-129768600D02*
X138976100Y-130403600D01*
X138976100Y-130403600D02*
X140246100Y-130403600D01*
X140246100Y-130403600D02*
X140881100Y-129768600D01*
X140881100Y-129768600D02*
X141516100Y-130403600D01*
X141516100Y-130403600D02*
X142786100Y-130403600D01*
X142786100Y-130403600D02*
X143421100Y-129768600D01*
X143421100Y-129768600D02*
X144056100Y-130403600D01*
X144056100Y-130403600D02*
X145326100Y-130403600D01*
X145326100Y-130403600D02*
X145961100Y-129768600D01*
X145961100Y-129768600D02*
X146596100Y-130403600D01*
X146596100Y-130403600D02*
X147866100Y-130403600D01*
X147866100Y-130403600D02*
X148501100Y-129768600D01*
X148501100Y-129768600D02*
X149136100Y-130403600D01*
X149136100Y-130403600D02*
X150406100Y-130403600D01*
X150406100Y-130403600D02*
X151041100Y-129768600D01*
X151041100Y-129768600D02*
X151676100Y-130403600D01*
X151676100Y-130403600D02*
X152946100Y-130403600D01*
X152946100Y-130403600D02*
X153581100Y-129768600D01*
X153581100Y-129768600D02*
X153581100Y-128498600D01*
D12*
X153047312Y-125784670D02*
X152789926Y-126556830D01*
X152532539Y-125784670D01*
X152275152Y-126556830D02*
X152275152Y-125784670D01*
X151907457Y-126556830D02*
X151907457Y-125784670D01*
X151466223Y-126556830D01*
X151466223Y-125784670D01*
X150119539Y-126710440D02*
X150193078Y-126673670D01*
X150303387Y-126673670D01*
X150413695Y-126710440D01*
X150487234Y-126783979D01*
X150524004Y-126857518D01*
X150560773Y-127004596D01*
X150560773Y-127114904D01*
X150524004Y-127261982D01*
X150487234Y-127335521D01*
X150413695Y-127409060D01*
X150303387Y-127445830D01*
X150229848Y-127445830D01*
X150119539Y-127409060D01*
X150082770Y-127372291D01*
X150082770Y-127114904D01*
X150229848Y-127114904D01*
X149751844Y-127445830D02*
X149751844Y-126673670D01*
X149310610Y-127445830D01*
X149310610Y-126673670D01*
X148942914Y-127445830D02*
X148942914Y-126673670D01*
X148759067Y-126673670D01*
X148648758Y-126710440D01*
X148575219Y-126783979D01*
X148538450Y-126857518D01*
X148501680Y-127004596D01*
X148501680Y-127114904D01*
X148538450Y-127261982D01*
X148575219Y-127335521D01*
X148648758Y-127409060D01*
X148759067Y-127445830D01*
X148942914Y-127445830D01*
X147579539Y-125821440D02*
X147653078Y-125784670D01*
X147763387Y-125784670D01*
X147873695Y-125821440D01*
X147947234Y-125894979D01*
X147984004Y-125968518D01*
X148020773Y-126115596D01*
X148020773Y-126225904D01*
X147984004Y-126372982D01*
X147947234Y-126446521D01*
X147873695Y-126520060D01*
X147763387Y-126556830D01*
X147689848Y-126556830D01*
X147579539Y-126520060D01*
X147542770Y-126483291D01*
X147542770Y-126225904D01*
X147689848Y-126225904D01*
X147211844Y-126556830D02*
X147211844Y-125784670D01*
X146770610Y-126556830D01*
X146770610Y-125784670D01*
X146402914Y-126556830D02*
X146402914Y-125784670D01*
X146219067Y-125784670D01*
X146108758Y-125821440D01*
X146035219Y-125894979D01*
X145998450Y-125968518D01*
X145961680Y-126115596D01*
X145961680Y-126225904D01*
X145998450Y-126372982D01*
X146035219Y-126446521D01*
X146108758Y-126520060D01*
X146219067Y-126556830D01*
X146402914Y-126556830D01*
X144695309Y-126673670D02*
X145063004Y-126673670D01*
X145099773Y-127041365D01*
X145063004Y-127004596D01*
X144989465Y-126967826D01*
X144805617Y-126967826D01*
X144732078Y-127004596D01*
X144695309Y-127041365D01*
X144658539Y-127114904D01*
X144658539Y-127298752D01*
X144695309Y-127372291D01*
X144732078Y-127409060D01*
X144805617Y-127445830D01*
X144989465Y-127445830D01*
X145063004Y-127409060D01*
X145099773Y-127372291D01*
X144437922Y-126673670D02*
X144180535Y-127445830D01*
X143923149Y-126673670D01*
X142977543Y-125784670D02*
X142499539Y-125784670D01*
X142756926Y-126078826D01*
X142646617Y-126078826D01*
X142573078Y-126115596D01*
X142536309Y-126152365D01*
X142499539Y-126225904D01*
X142499539Y-126409752D01*
X142536309Y-126483291D01*
X142573078Y-126520060D01*
X142646617Y-126556830D01*
X142867234Y-126556830D01*
X142940773Y-126520060D01*
X142977543Y-126483291D01*
X142278922Y-125784670D02*
X142021535Y-126556830D01*
X141764149Y-125784670D01*
X141580301Y-125784670D02*
X141102297Y-125784670D01*
X141359684Y-126078826D01*
X141249375Y-126078826D01*
X141175836Y-126115596D01*
X141139067Y-126152365D01*
X141102297Y-126225904D01*
X141102297Y-126409752D01*
X141139067Y-126483291D01*
X141175836Y-126520060D01*
X141249375Y-126556830D01*
X141469992Y-126556830D01*
X141543532Y-126520060D01*
X141580301Y-126483291D01*
X139922770Y-127445830D02*
X140180156Y-127078135D01*
X140364004Y-127445830D02*
X140364004Y-126673670D01*
X140069848Y-126673670D01*
X139996309Y-126710440D01*
X139959539Y-126747209D01*
X139922770Y-126820748D01*
X139922770Y-126931057D01*
X139959539Y-127004596D01*
X139996309Y-127041365D01*
X140069848Y-127078135D01*
X140364004Y-127078135D01*
X139628613Y-127409060D02*
X139518305Y-127445830D01*
X139334457Y-127445830D01*
X139260918Y-127409060D01*
X139224149Y-127372291D01*
X139187379Y-127298752D01*
X139187379Y-127225213D01*
X139224149Y-127151674D01*
X139260918Y-127114904D01*
X139334457Y-127078135D01*
X139481535Y-127041365D01*
X139555074Y-127004596D01*
X139591844Y-126967826D01*
X139628613Y-126894287D01*
X139628613Y-126820748D01*
X139591844Y-126747209D01*
X139555074Y-126710440D01*
X139481535Y-126673670D01*
X139297688Y-126673670D01*
X139187379Y-126710440D01*
X138966762Y-126673670D02*
X138525528Y-126673670D01*
X138746145Y-127445830D02*
X138746145Y-126673670D01*
X130778770Y-84265830D02*
X131036156Y-83898135D01*
X131220004Y-84265830D02*
X131220004Y-83493670D01*
X130925848Y-83493670D01*
X130852309Y-83530440D01*
X130815539Y-83567209D01*
X130778770Y-83640748D01*
X130778770Y-83751057D01*
X130815539Y-83824596D01*
X130852309Y-83861365D01*
X130925848Y-83898135D01*
X131220004Y-83898135D01*
X130447844Y-83861365D02*
X130190457Y-83861365D01*
X130080149Y-84265830D02*
X130447844Y-84265830D01*
X130447844Y-83493670D01*
X130080149Y-83493670D01*
X129491836Y-83861365D02*
X129749223Y-83861365D01*
X129749223Y-84265830D02*
X129749223Y-83493670D01*
X129381528Y-83493670D01*
X130494773Y-83029213D02*
X130127078Y-83029213D01*
X130568312Y-83249830D02*
X130310926Y-82477670D01*
X130053539Y-83249830D01*
X133355539Y-82641440D02*
X133429078Y-82604670D01*
X133539387Y-82604670D01*
X133649695Y-82641440D01*
X133723234Y-82714979D01*
X133760004Y-82788518D01*
X133796773Y-82935596D01*
X133796773Y-83045904D01*
X133760004Y-83192982D01*
X133723234Y-83266521D01*
X133649695Y-83340060D01*
X133539387Y-83376830D01*
X133465848Y-83376830D01*
X133355539Y-83340060D01*
X133318770Y-83303291D01*
X133318770Y-83045904D01*
X133465848Y-83045904D01*
X132987844Y-83376830D02*
X132987844Y-82604670D01*
X132546610Y-83376830D01*
X132546610Y-82604670D01*
X132178914Y-83376830D02*
X132178914Y-82604670D01*
X131995067Y-82604670D01*
X131884758Y-82641440D01*
X131811219Y-82714979D01*
X131774450Y-82788518D01*
X131737680Y-82935596D01*
X131737680Y-83045904D01*
X131774450Y-83192982D01*
X131811219Y-83266521D01*
X131884758Y-83340060D01*
X131995067Y-83376830D01*
X132178914Y-83376830D01*
X136300004Y-84265830D02*
X136300004Y-83493670D01*
X136116156Y-83493670D01*
X136005848Y-83530440D01*
X135932309Y-83603979D01*
X135895539Y-83677518D01*
X135858770Y-83824596D01*
X135858770Y-83934904D01*
X135895539Y-84081982D01*
X135932309Y-84155521D01*
X136005848Y-84229060D01*
X136116156Y-84265830D01*
X136300004Y-84265830D01*
X135123379Y-84265830D02*
X135564613Y-84265830D01*
X135343996Y-84265830D02*
X135343996Y-83493670D01*
X135417535Y-83603979D01*
X135491074Y-83677518D01*
X135564613Y-83714287D01*
X134865992Y-83493670D02*
X134387989Y-83493670D01*
X134645375Y-83787826D01*
X134535067Y-83787826D01*
X134461528Y-83824596D01*
X134424758Y-83861365D01*
X134387989Y-83934904D01*
X134387989Y-84118752D01*
X134424758Y-84192291D01*
X134461528Y-84229060D01*
X134535067Y-84265830D01*
X134755684Y-84265830D01*
X134829223Y-84229060D01*
X134865992Y-84192291D01*
X138840004Y-83376830D02*
X138840004Y-82604670D01*
X138656156Y-82604670D01*
X138545848Y-82641440D01*
X138472309Y-82714979D01*
X138435539Y-82788518D01*
X138398770Y-82935596D01*
X138398770Y-83045904D01*
X138435539Y-83192982D01*
X138472309Y-83266521D01*
X138545848Y-83340060D01*
X138656156Y-83376830D01*
X138840004Y-83376830D01*
X137663379Y-83376830D02*
X138104613Y-83376830D01*
X137883996Y-83376830D02*
X137883996Y-82604670D01*
X137957535Y-82714979D01*
X138031074Y-82788518D01*
X138104613Y-82825287D01*
X137369223Y-82678209D02*
X137332453Y-82641440D01*
X137258914Y-82604670D01*
X137075067Y-82604670D01*
X137001528Y-82641440D01*
X136964758Y-82678209D01*
X136927989Y-82751748D01*
X136927989Y-82825287D01*
X136964758Y-82935596D01*
X137405992Y-83376830D01*
X136927989Y-83376830D01*
X98044169Y-104930004D02*
X98816329Y-104930004D01*
X98816329Y-104746156D01*
X98779560Y-104635848D01*
X98706020Y-104562309D01*
X98632481Y-104525539D01*
X98485403Y-104488770D01*
X98375095Y-104488770D01*
X98228017Y-104525539D01*
X98154478Y-104562309D01*
X98080939Y-104635848D01*
X98044169Y-104746156D01*
X98044169Y-104930004D01*
X98044169Y-103753379D02*
X98044169Y-104194613D01*
X98044169Y-103973996D02*
X98816329Y-103973996D01*
X98706020Y-104047535D01*
X98632481Y-104121074D01*
X98595712Y-104194613D01*
X98044169Y-103017989D02*
X98044169Y-103459223D01*
X98044169Y-103238606D02*
X98816329Y-103238606D01*
X98706020Y-103312145D01*
X98632481Y-103385684D01*
X98595712Y-103459223D01*
X153240004Y-83526830D02*
X153240004Y-82754670D01*
X153056156Y-82754670D01*
X152945848Y-82791440D01*
X152872309Y-82864979D01*
X152835539Y-82938518D01*
X152798770Y-83085596D01*
X152798770Y-83195904D01*
X152835539Y-83342982D01*
X152872309Y-83416521D01*
X152945848Y-83490060D01*
X153056156Y-83526830D01*
X153240004Y-83526830D01*
X152063379Y-83526830D02*
X152504613Y-83526830D01*
X152283996Y-83526830D02*
X152283996Y-82754670D01*
X152357535Y-82864979D01*
X152431074Y-82938518D01*
X152504613Y-82975287D01*
X151585375Y-82754670D02*
X151511836Y-82754670D01*
X151438297Y-82791440D01*
X151401528Y-82828209D01*
X151364758Y-82901748D01*
X151327989Y-83048826D01*
X151327989Y-83232674D01*
X151364758Y-83379752D01*
X151401528Y-83453291D01*
X151438297Y-83490060D01*
X151511836Y-83526830D01*
X151585375Y-83526830D01*
X151658914Y-83490060D01*
X151695684Y-83453291D01*
X151732453Y-83379752D01*
X151769223Y-83232674D01*
X151769223Y-83048826D01*
X151732453Y-82901748D01*
X151695684Y-82828209D01*
X151658914Y-82791440D01*
X151585375Y-82754670D01*
D10*
X143964852Y-101385523D02*
X145171352Y-101385523D01*
X145171352Y-101098261D01*
X145113900Y-100925904D01*
X144998995Y-100810999D01*
X144884090Y-100753546D01*
X144654280Y-100696094D01*
X144481923Y-100696094D01*
X144252114Y-100753546D01*
X144137209Y-100810999D01*
X144022304Y-100925904D01*
X143964852Y-101098261D01*
X143964852Y-101385523D01*
X143964852Y-100121570D02*
X143964852Y-99891761D01*
X144022304Y-99776856D01*
X144079757Y-99719404D01*
X144252114Y-99604499D01*
X144481923Y-99547046D01*
X144941542Y-99547046D01*
X145056447Y-99604499D01*
X145113900Y-99661951D01*
X145171352Y-99776856D01*
X145171352Y-100006665D01*
X145113900Y-100121570D01*
X145056447Y-100179023D01*
X144941542Y-100236475D01*
X144654280Y-100236475D01*
X144539376Y-100179023D01*
X144481923Y-100121570D01*
X144424471Y-100006665D01*
X144424471Y-99776856D01*
X144481923Y-99661951D01*
X144539376Y-99604499D01*
X144654280Y-99547046D01*
X144472852Y-103925523D02*
X145679352Y-103925523D01*
X145679352Y-103638261D01*
X145621900Y-103465904D01*
X145506995Y-103350999D01*
X145392090Y-103293546D01*
X145162280Y-103236094D01*
X144989923Y-103236094D01*
X144760114Y-103293546D01*
X144645209Y-103350999D01*
X144530304Y-103465904D01*
X144472852Y-103638261D01*
X144472852Y-103925523D01*
X145162280Y-102546665D02*
X145219733Y-102661570D01*
X145277185Y-102719023D01*
X145392090Y-102776475D01*
X145449542Y-102776475D01*
X145564447Y-102719023D01*
X145621900Y-102661570D01*
X145679352Y-102546665D01*
X145679352Y-102316856D01*
X145621900Y-102201951D01*
X145564447Y-102144499D01*
X145449542Y-102087046D01*
X145392090Y-102087046D01*
X145277185Y-102144499D01*
X145219733Y-102201951D01*
X145162280Y-102316856D01*
X145162280Y-102546665D01*
X145104828Y-102661570D01*
X145047376Y-102719023D01*
X144932471Y-102776475D01*
X144702661Y-102776475D01*
X144587757Y-102719023D01*
X144530304Y-102661570D01*
X144472852Y-102546665D01*
X144472852Y-102316856D01*
X144530304Y-102201951D01*
X144587757Y-102144499D01*
X144702661Y-102087046D01*
X144932471Y-102087046D01*
X145047376Y-102144499D01*
X145104828Y-102201951D01*
X145162280Y-102316856D01*
X144472852Y-110402523D02*
X145679352Y-110402523D01*
X145679352Y-110115261D01*
X145621900Y-109942904D01*
X145506995Y-109827999D01*
X145392090Y-109770546D01*
X145162280Y-109713094D01*
X144989923Y-109713094D01*
X144760114Y-109770546D01*
X144645209Y-109827999D01*
X144530304Y-109942904D01*
X144472852Y-110115261D01*
X144472852Y-110402523D01*
X145679352Y-108678951D02*
X145679352Y-108908761D01*
X145621900Y-109023665D01*
X145564447Y-109081118D01*
X145392090Y-109196023D01*
X145162280Y-109253475D01*
X144702661Y-109253475D01*
X144587757Y-109196023D01*
X144530304Y-109138570D01*
X144472852Y-109023665D01*
X144472852Y-108793856D01*
X144530304Y-108678951D01*
X144587757Y-108621499D01*
X144702661Y-108564046D01*
X144989923Y-108564046D01*
X145104828Y-108621499D01*
X145162280Y-108678951D01*
X145219733Y-108793856D01*
X145219733Y-109023665D01*
X145162280Y-109138570D01*
X145104828Y-109196023D01*
X144989923Y-109253475D01*
X98572852Y-124102523D02*
X99779352Y-124102523D01*
X99779352Y-123815261D01*
X99721900Y-123642904D01*
X99606995Y-123527999D01*
X99492090Y-123470546D01*
X99262280Y-123413094D01*
X99089923Y-123413094D01*
X98860114Y-123470546D01*
X98745209Y-123527999D01*
X98630304Y-123642904D01*
X98572852Y-123815261D01*
X98572852Y-124102523D01*
X99377185Y-122378951D02*
X98572852Y-122378951D01*
X99836804Y-122666213D02*
X98975019Y-122953475D01*
X98975019Y-122206594D01*
X144622852Y-111242523D02*
X145829352Y-111242523D01*
X145829352Y-110955261D01*
X145771900Y-110782904D01*
X145656995Y-110667999D01*
X145542090Y-110610546D01*
X145312280Y-110553094D01*
X145139923Y-110553094D01*
X144910114Y-110610546D01*
X144795209Y-110667999D01*
X144680304Y-110782904D01*
X144622852Y-110955261D01*
X144622852Y-111242523D01*
X145714447Y-110093475D02*
X145771900Y-110036023D01*
X145829352Y-109921118D01*
X145829352Y-109633856D01*
X145771900Y-109518951D01*
X145714447Y-109461499D01*
X145599542Y-109404046D01*
X145484638Y-109404046D01*
X145312280Y-109461499D01*
X144622852Y-110150927D01*
X144622852Y-109404046D01*
X149097476Y-87432852D02*
X149097476Y-88639352D01*
X149384738Y-88639352D01*
X149557095Y-88581900D01*
X149672000Y-88466995D01*
X149729453Y-88352090D01*
X149786905Y-88122280D01*
X149786905Y-87949923D01*
X149729453Y-87720114D01*
X149672000Y-87605209D01*
X149557095Y-87490304D01*
X149384738Y-87432852D01*
X149097476Y-87432852D01*
X150533786Y-88639352D02*
X150648691Y-88639352D01*
X150763595Y-88581900D01*
X150821048Y-88524447D01*
X150878500Y-88409542D01*
X150935953Y-88179733D01*
X150935953Y-87892471D01*
X150878500Y-87662661D01*
X150821048Y-87547757D01*
X150763595Y-87490304D01*
X150648691Y-87432852D01*
X150533786Y-87432852D01*
X150418881Y-87490304D01*
X150361429Y-87547757D01*
X150303976Y-87662661D01*
X150246524Y-87892471D01*
X150246524Y-88179733D01*
X150303976Y-88409542D01*
X150361429Y-88524447D01*
X150418881Y-88581900D01*
X150533786Y-88639352D01*
X168229975Y-127080433D02*
X167655451Y-127080433D01*
X168344880Y-127425147D02*
X167942713Y-126218647D01*
X167540546Y-127425147D01*
X166621308Y-126620814D02*
X166621308Y-127425147D01*
X166908570Y-126161195D02*
X167195832Y-127022980D01*
X166448951Y-127022980D01*
X165689975Y-126572433D02*
X165115451Y-126572433D01*
X165804880Y-126917147D02*
X165402713Y-125710647D01*
X165000546Y-126917147D01*
X164713285Y-125710647D02*
X163966404Y-125710647D01*
X164368570Y-126170266D01*
X164196213Y-126170266D01*
X164081308Y-126227719D01*
X164023856Y-126285171D01*
X163966404Y-126400076D01*
X163966404Y-126687338D01*
X164023856Y-126802242D01*
X164081308Y-126859695D01*
X164196213Y-126917147D01*
X164540927Y-126917147D01*
X164655832Y-126859695D01*
X164713285Y-126802242D01*
X163149975Y-127080433D02*
X162575451Y-127080433D01*
X163264880Y-127425147D02*
X162862713Y-126218647D01*
X162460546Y-127425147D01*
X162115832Y-126333552D02*
X162058380Y-126276100D01*
X161943475Y-126218647D01*
X161656213Y-126218647D01*
X161541308Y-126276100D01*
X161483856Y-126333552D01*
X161426404Y-126448457D01*
X161426404Y-126563361D01*
X161483856Y-126735719D01*
X162173285Y-127425147D01*
X161426404Y-127425147D01*
X160609975Y-126572433D02*
X160035451Y-126572433D01*
X160724880Y-126917147D02*
X160322713Y-125710647D01*
X159920546Y-126917147D01*
X158886404Y-126917147D02*
X159575832Y-126917147D01*
X159231118Y-126917147D02*
X159231118Y-125710647D01*
X159346023Y-125883004D01*
X159460927Y-125997909D01*
X159575832Y-126055361D01*
X158069975Y-127080433D02*
X157495451Y-127080433D01*
X158184880Y-127425147D02*
X157782713Y-126218647D01*
X157380546Y-127425147D01*
X156748570Y-126218647D02*
X156633665Y-126218647D01*
X156518761Y-126276100D01*
X156461308Y-126333552D01*
X156403856Y-126448457D01*
X156346404Y-126678266D01*
X156346404Y-126965528D01*
X156403856Y-127195338D01*
X156461308Y-127310242D01*
X156518761Y-127367695D01*
X156633665Y-127425147D01*
X156748570Y-127425147D01*
X156863475Y-127367695D01*
X156920927Y-127310242D01*
X156978380Y-127195338D01*
X157035832Y-126965528D01*
X157035832Y-126678266D01*
X156978380Y-126448457D01*
X156920927Y-126333552D01*
X156863475Y-126276100D01*
X156748570Y-126218647D01*
X170769975Y-126572433D02*
X170195451Y-126572433D01*
X170884880Y-126917147D02*
X170482713Y-125710647D01*
X170080546Y-126917147D01*
X169103856Y-125710647D02*
X169678380Y-125710647D01*
X169735832Y-126285171D01*
X169678380Y-126227719D01*
X169563475Y-126170266D01*
X169276213Y-126170266D01*
X169161308Y-126227719D01*
X169103856Y-126285171D01*
X169046404Y-126400076D01*
X169046404Y-126687338D01*
X169103856Y-126802242D01*
X169161308Y-126859695D01*
X169276213Y-126917147D01*
X169563475Y-126917147D01*
X169678380Y-126859695D01*
X169735832Y-126802242D01*
D11*
X133261100Y-128498600D02*
X133261100Y-129768600D01*
X133261100Y-129768600D02*
X133896100Y-130403600D01*
X135801100Y-129768600D02*
X136436100Y-130403600D01*
X137706100Y-130403600D02*
X138341100Y-129768600D01*
X135166100Y-130403600D02*
X135801100Y-129768600D01*
X133896100Y-130403600D02*
X135166100Y-130403600D01*
X136436100Y-130403600D02*
X137706100Y-130403600D01*
X133896100Y-127863600D02*
X133261100Y-128498600D01*
X135801100Y-128498600D02*
X135166100Y-127863600D01*
X136436100Y-127863600D02*
X135801100Y-128498600D01*
X138341100Y-128498600D02*
X137706100Y-127863600D01*
X137706100Y-127863600D02*
X136436100Y-127863600D01*
X135166100Y-127863600D02*
X133896100Y-127863600D01*
D12*
X138332004Y-126556830D02*
X138332004Y-125784670D01*
X137817231Y-125784670D02*
X137670152Y-125784670D01*
X137596613Y-125821440D01*
X137523074Y-125894979D01*
X137486305Y-126042057D01*
X137486305Y-126299443D01*
X137523074Y-126446521D01*
X137596613Y-126520060D01*
X137670152Y-126556830D01*
X137817231Y-126556830D01*
X137890770Y-126520060D01*
X137964309Y-126446521D01*
X138001078Y-126299443D01*
X138001078Y-126042057D01*
X137964309Y-125894979D01*
X137890770Y-125821440D01*
X137817231Y-125784670D01*
X136714145Y-126556830D02*
X136971532Y-126189135D01*
X137155379Y-126556830D02*
X137155379Y-125784670D01*
X136861223Y-125784670D01*
X136787684Y-125821440D01*
X136750914Y-125858209D01*
X136714145Y-125931748D01*
X136714145Y-126042057D01*
X136750914Y-126115596D01*
X136787684Y-126152365D01*
X136861223Y-126189135D01*
X137155379Y-126189135D01*
X136383219Y-126152365D02*
X136125832Y-126152365D01*
X136015524Y-126556830D02*
X136383219Y-126556830D01*
X136383219Y-125784670D01*
X136015524Y-125784670D01*
X135427212Y-126152365D02*
X135684598Y-126152365D01*
X135684598Y-126556830D02*
X135684598Y-125784670D01*
X135316903Y-125784670D01*
D11*
X124117100Y-80238600D02*
X124117100Y-81508600D01*
X124752100Y-79603600D02*
X124117100Y-80238600D01*
X126657100Y-80238600D02*
X126022100Y-79603600D01*
X127292100Y-79603600D02*
X126657100Y-80238600D01*
X129197100Y-80238600D02*
X128562100Y-79603600D01*
X126022100Y-79603600D02*
X124752100Y-79603600D01*
X128562100Y-79603600D02*
X127292100Y-79603600D01*
X124117100Y-81508600D02*
X124752100Y-82143600D01*
X126022100Y-82143600D02*
X126657100Y-81508600D01*
X126657100Y-81508600D02*
X127292100Y-82143600D01*
X124752100Y-82143600D02*
X126022100Y-82143600D01*
X128562100Y-82143600D02*
X129197100Y-81508600D01*
X127292100Y-82143600D02*
X128562100Y-82143600D01*
D12*
X128716773Y-83340060D02*
X128606465Y-83376830D01*
X128422617Y-83376830D01*
X128349078Y-83340060D01*
X128312309Y-83303291D01*
X128275539Y-83229752D01*
X128275539Y-83156213D01*
X128312309Y-83082674D01*
X128349078Y-83045904D01*
X128422617Y-83009135D01*
X128569695Y-82972365D01*
X128643234Y-82935596D01*
X128680004Y-82898826D01*
X128716773Y-82825287D01*
X128716773Y-82751748D01*
X128680004Y-82678209D01*
X128643234Y-82641440D01*
X128569695Y-82604670D01*
X128385848Y-82604670D01*
X128275539Y-82641440D01*
X127944613Y-83376830D02*
X127944613Y-82604670D01*
X127760766Y-82604670D01*
X127650457Y-82641440D01*
X127576918Y-82714979D01*
X127540149Y-82788518D01*
X127503379Y-82935596D01*
X127503379Y-83045904D01*
X127540149Y-83192982D01*
X127576918Y-83266521D01*
X127650457Y-83340060D01*
X127760766Y-83376830D01*
X127944613Y-83376830D01*
X127209223Y-83156213D02*
X126841528Y-83156213D01*
X127282762Y-83376830D02*
X127025375Y-82604670D01*
X126767989Y-83376830D01*
X126176773Y-84229060D02*
X126066465Y-84265830D01*
X125882617Y-84265830D01*
X125809078Y-84229060D01*
X125772309Y-84192291D01*
X125735539Y-84118752D01*
X125735539Y-84045213D01*
X125772309Y-83971674D01*
X125809078Y-83934904D01*
X125882617Y-83898135D01*
X126029695Y-83861365D01*
X126103234Y-83824596D01*
X126140004Y-83787826D01*
X126176773Y-83714287D01*
X126176773Y-83640748D01*
X126140004Y-83567209D01*
X126103234Y-83530440D01*
X126029695Y-83493670D01*
X125845848Y-83493670D01*
X125735539Y-83530440D01*
X124963379Y-84192291D02*
X125000149Y-84229060D01*
X125110457Y-84265830D01*
X125183996Y-84265830D01*
X125294305Y-84229060D01*
X125367844Y-84155521D01*
X125404613Y-84081982D01*
X125441383Y-83934904D01*
X125441383Y-83824596D01*
X125404613Y-83677518D01*
X125367844Y-83603979D01*
X125294305Y-83530440D01*
X125183996Y-83493670D01*
X125110457Y-83493670D01*
X125000149Y-83530440D01*
X124963379Y-83567209D01*
X124264758Y-84265830D02*
X124632453Y-84265830D01*
X124632453Y-83493670D01*
D13*
X132081000Y-120671998D02*
G75*
G03X132081000Y-120671998I-381000J0D01*
G01*
M02*
