G04 #@! TF.GenerationSoftware,KiCad,Pcbnew,(5.1.5)-3*
G04 #@! TF.CreationDate,2021-09-12T13:17:19-04:00*
G04 #@! TF.ProjectId,EtherTenFuranceMonitorRev2,45746865-7254-4656-9e46-7572616e6365,rev?*
G04 #@! TF.SameCoordinates,Original*
G04 #@! TF.FileFunction,Legend,Top*
G04 #@! TF.FilePolarity,Positive*
%FSLAX46Y46*%
G04 Gerber Fmt 4.6, Leading zero omitted, Abs format (unit mm)*
G04 Created by KiCad (PCBNEW (5.1.5)-3) date 2021-09-12 13:17:19*
%MOMM*%
%LPD*%
G04 APERTURE LIST*
%ADD10C,0.165100*%
%ADD11C,0.304800*%
%ADD12C,0.152400*%
%ADD13C,0.121920*%
%ADD14C,0.120000*%
%ADD15C,0.203200*%
%ADD16C,0.150000*%
%ADD17C,0.127000*%
G04 APERTURE END LIST*
D10*
X143964852Y-106619676D02*
X145171352Y-106619676D01*
X145171352Y-106906938D01*
X145113900Y-107079295D01*
X144998995Y-107194200D01*
X144884090Y-107251653D01*
X144654280Y-107309105D01*
X144481923Y-107309105D01*
X144252114Y-107251653D01*
X144137209Y-107194200D01*
X144022304Y-107079295D01*
X143964852Y-106906938D01*
X143964852Y-106619676D01*
X145171352Y-107711272D02*
X145171352Y-108515605D01*
X143964852Y-107998534D01*
X171169676Y-84395147D02*
X171169676Y-83188647D01*
X171456938Y-83188647D01*
X171629295Y-83246100D01*
X171744200Y-83361004D01*
X171801653Y-83475909D01*
X171859105Y-83705719D01*
X171859105Y-83878076D01*
X171801653Y-84107885D01*
X171744200Y-84222790D01*
X171629295Y-84337695D01*
X171456938Y-84395147D01*
X171169676Y-84395147D01*
X172261272Y-83188647D02*
X173008153Y-83188647D01*
X172605986Y-83648266D01*
X172778343Y-83648266D01*
X172893248Y-83705719D01*
X172950700Y-83763171D01*
X173008153Y-83878076D01*
X173008153Y-84165338D01*
X172950700Y-84280242D01*
X172893248Y-84337695D01*
X172778343Y-84395147D01*
X172433629Y-84395147D01*
X172318724Y-84337695D01*
X172261272Y-84280242D01*
X144114852Y-112539676D02*
X145321352Y-112539676D01*
X145321352Y-112826938D01*
X145263900Y-112999295D01*
X145148995Y-113114200D01*
X145034090Y-113171653D01*
X144804280Y-113229105D01*
X144631923Y-113229105D01*
X144402114Y-113171653D01*
X144287209Y-113114200D01*
X144172304Y-112999295D01*
X144114852Y-112826938D01*
X144114852Y-112539676D01*
X144114852Y-114378153D02*
X144114852Y-113688724D01*
X144114852Y-114033438D02*
X145321352Y-114033438D01*
X145148995Y-113918534D01*
X145034090Y-113803629D01*
X144976638Y-113688724D01*
X143964852Y-111699676D02*
X145171352Y-111699676D01*
X145171352Y-111986938D01*
X145113900Y-112159295D01*
X144998995Y-112274200D01*
X144884090Y-112331653D01*
X144654280Y-112389105D01*
X144481923Y-112389105D01*
X144252114Y-112331653D01*
X144137209Y-112274200D01*
X144022304Y-112159295D01*
X143964852Y-111986938D01*
X143964852Y-111699676D01*
X145171352Y-113480700D02*
X145171352Y-112906176D01*
X144596828Y-112848724D01*
X144654280Y-112906176D01*
X144711733Y-113021081D01*
X144711733Y-113308343D01*
X144654280Y-113423248D01*
X144596828Y-113480700D01*
X144481923Y-113538153D01*
X144194661Y-113538153D01*
X144079757Y-113480700D01*
X144022304Y-113423248D01*
X143964852Y-113308343D01*
X143964852Y-113021081D01*
X144022304Y-112906176D01*
X144079757Y-112848724D01*
D11*
X125006100Y-78841600D02*
X169710100Y-78841600D01*
X172123100Y-91287600D02*
X172123100Y-81254600D01*
X169710100Y-78841600D02*
G75*
G02X172123100Y-81254600I200J-2412800D01*
G01*
X125006100Y-78841600D02*
G75*
G03X122339100Y-81127600I-190500J-2476500D01*
G01*
X124879100Y-131165600D02*
G75*
G02X122339100Y-128752600I-63500J2476500D01*
G01*
X124879100Y-131165600D02*
X169964100Y-131165600D01*
X174663100Y-126339600D02*
X174663100Y-93827600D01*
X174663100Y-126339600D02*
X171996100Y-129006600D01*
X169964100Y-131165600D02*
G75*
G03X171996100Y-129006600I-63500J2095500D01*
G01*
X174663100Y-93827600D02*
X172123100Y-91287600D01*
D12*
X126521512Y-130611638D02*
X126199779Y-130152019D01*
X125969969Y-130611638D02*
X125969969Y-129646438D01*
X126337664Y-129646438D01*
X126429588Y-129692400D01*
X126475550Y-129738361D01*
X126521512Y-129830285D01*
X126521512Y-129968171D01*
X126475550Y-130060095D01*
X126429588Y-130106057D01*
X126337664Y-130152019D01*
X125969969Y-130152019D01*
X126935169Y-130106057D02*
X127256902Y-130106057D01*
X127394788Y-130611638D02*
X126935169Y-130611638D01*
X126935169Y-129646438D01*
X127394788Y-129646438D01*
X127762483Y-130565676D02*
X127900369Y-130611638D01*
X128130179Y-130611638D01*
X128222102Y-130565676D01*
X128268064Y-130519714D01*
X128314026Y-130427790D01*
X128314026Y-130335866D01*
X128268064Y-130243942D01*
X128222102Y-130197980D01*
X128130179Y-130152019D01*
X127946331Y-130106057D01*
X127854407Y-130060095D01*
X127808445Y-130014133D01*
X127762483Y-129922209D01*
X127762483Y-129830285D01*
X127808445Y-129738361D01*
X127854407Y-129692400D01*
X127946331Y-129646438D01*
X128176140Y-129646438D01*
X128314026Y-129692400D01*
X128727683Y-130106057D02*
X129049417Y-130106057D01*
X129187302Y-130611638D02*
X128727683Y-130611638D01*
X128727683Y-129646438D01*
X129187302Y-129646438D01*
X129463074Y-129646438D02*
X130014617Y-129646438D01*
X129738845Y-130611638D02*
X129738845Y-129646438D01*
D13*
X139299429Y-127445830D02*
X139042043Y-127078135D01*
X138858195Y-127445830D02*
X138858195Y-126673670D01*
X139152351Y-126673670D01*
X139225890Y-126710440D01*
X139262660Y-126747209D01*
X139299429Y-126820748D01*
X139299429Y-126931057D01*
X139262660Y-127004596D01*
X139225890Y-127041365D01*
X139152351Y-127078135D01*
X138858195Y-127078135D01*
X139593586Y-127409060D02*
X139703894Y-127445830D01*
X139887742Y-127445830D01*
X139961281Y-127409060D01*
X139998050Y-127372291D01*
X140034820Y-127298752D01*
X140034820Y-127225213D01*
X139998050Y-127151674D01*
X139961281Y-127114904D01*
X139887742Y-127078135D01*
X139740664Y-127041365D01*
X139667125Y-127004596D01*
X139630355Y-126967826D01*
X139593586Y-126894287D01*
X139593586Y-126820748D01*
X139630355Y-126747209D01*
X139667125Y-126710440D01*
X139740664Y-126673670D01*
X139924511Y-126673670D01*
X140034820Y-126710440D01*
X140255437Y-126673670D02*
X140696671Y-126673670D01*
X140476054Y-127445830D02*
X140476054Y-126673670D01*
X141324656Y-125784670D02*
X141802660Y-125784670D01*
X141545273Y-126078826D01*
X141655582Y-126078826D01*
X141729121Y-126115596D01*
X141765890Y-126152365D01*
X141802660Y-126225904D01*
X141802660Y-126409752D01*
X141765890Y-126483291D01*
X141729121Y-126520060D01*
X141655582Y-126556830D01*
X141434965Y-126556830D01*
X141361426Y-126520060D01*
X141324656Y-126483291D01*
X142023277Y-125784670D02*
X142280664Y-126556830D01*
X142538050Y-125784670D01*
X142721898Y-125784670D02*
X143199902Y-125784670D01*
X142942515Y-126078826D01*
X143052824Y-126078826D01*
X143126363Y-126115596D01*
X143163132Y-126152365D01*
X143199902Y-126225904D01*
X143199902Y-126409752D01*
X143163132Y-126483291D01*
X143126363Y-126520060D01*
X143052824Y-126556830D01*
X142832207Y-126556830D01*
X142758668Y-126520060D01*
X142721898Y-126483291D01*
X144686890Y-126673670D02*
X144319195Y-126673670D01*
X144282426Y-127041365D01*
X144319195Y-127004596D01*
X144392734Y-126967826D01*
X144576582Y-126967826D01*
X144650121Y-127004596D01*
X144686890Y-127041365D01*
X144723660Y-127114904D01*
X144723660Y-127298752D01*
X144686890Y-127372291D01*
X144650121Y-127409060D01*
X144576582Y-127445830D01*
X144392734Y-127445830D01*
X144319195Y-127409060D01*
X144282426Y-127372291D01*
X144944277Y-126673670D02*
X145201664Y-127445830D01*
X145459050Y-126673670D01*
X146882660Y-125821440D02*
X146809121Y-125784670D01*
X146698812Y-125784670D01*
X146588504Y-125821440D01*
X146514965Y-125894979D01*
X146478195Y-125968518D01*
X146441426Y-126115596D01*
X146441426Y-126225904D01*
X146478195Y-126372982D01*
X146514965Y-126446521D01*
X146588504Y-126520060D01*
X146698812Y-126556830D01*
X146772351Y-126556830D01*
X146882660Y-126520060D01*
X146919429Y-126483291D01*
X146919429Y-126225904D01*
X146772351Y-126225904D01*
X147250355Y-126556830D02*
X147250355Y-125784670D01*
X147691589Y-126556830D01*
X147691589Y-125784670D01*
X148059285Y-126556830D02*
X148059285Y-125784670D01*
X148243132Y-125784670D01*
X148353441Y-125821440D01*
X148426980Y-125894979D01*
X148463749Y-125968518D01*
X148500519Y-126115596D01*
X148500519Y-126225904D01*
X148463749Y-126372982D01*
X148426980Y-126446521D01*
X148353441Y-126520060D01*
X148243132Y-126556830D01*
X148059285Y-126556830D01*
X149422660Y-126710440D02*
X149349121Y-126673670D01*
X149238812Y-126673670D01*
X149128504Y-126710440D01*
X149054965Y-126783979D01*
X149018195Y-126857518D01*
X148981426Y-127004596D01*
X148981426Y-127114904D01*
X149018195Y-127261982D01*
X149054965Y-127335521D01*
X149128504Y-127409060D01*
X149238812Y-127445830D01*
X149312351Y-127445830D01*
X149422660Y-127409060D01*
X149459429Y-127372291D01*
X149459429Y-127114904D01*
X149312351Y-127114904D01*
X149790355Y-127445830D02*
X149790355Y-126673670D01*
X150231589Y-127445830D01*
X150231589Y-126673670D01*
X150599285Y-127445830D02*
X150599285Y-126673670D01*
X150783132Y-126673670D01*
X150893441Y-126710440D01*
X150966980Y-126783979D01*
X151003749Y-126857518D01*
X151040519Y-127004596D01*
X151040519Y-127114904D01*
X151003749Y-127261982D01*
X150966980Y-127335521D01*
X150893441Y-127409060D01*
X150783132Y-127445830D01*
X150599285Y-127445830D01*
X151574887Y-125784670D02*
X151832273Y-126556830D01*
X152089660Y-125784670D01*
X152347047Y-126556830D02*
X152347047Y-125784670D01*
X152714742Y-126556830D02*
X152714742Y-125784670D01*
X153155976Y-126556830D01*
X153155976Y-125784670D01*
D10*
X156712224Y-127080433D02*
X157286748Y-127080433D01*
X156597319Y-127425147D02*
X156999486Y-126218647D01*
X157401653Y-127425147D01*
X158033629Y-126218647D02*
X158148534Y-126218647D01*
X158263438Y-126276100D01*
X158320891Y-126333552D01*
X158378343Y-126448457D01*
X158435795Y-126678266D01*
X158435795Y-126965528D01*
X158378343Y-127195338D01*
X158320891Y-127310242D01*
X158263438Y-127367695D01*
X158148534Y-127425147D01*
X158033629Y-127425147D01*
X157918724Y-127367695D01*
X157861272Y-127310242D01*
X157803819Y-127195338D01*
X157746367Y-126965528D01*
X157746367Y-126678266D01*
X157803819Y-126448457D01*
X157861272Y-126333552D01*
X157918724Y-126276100D01*
X158033629Y-126218647D01*
X159252224Y-126572433D02*
X159826748Y-126572433D01*
X159137319Y-126917147D02*
X159539486Y-125710647D01*
X159941653Y-126917147D01*
X160975795Y-126917147D02*
X160286367Y-126917147D01*
X160631081Y-126917147D02*
X160631081Y-125710647D01*
X160516176Y-125883004D01*
X160401272Y-125997909D01*
X160286367Y-126055361D01*
X161792224Y-127080433D02*
X162366748Y-127080433D01*
X161677319Y-127425147D02*
X162079486Y-126218647D01*
X162481653Y-127425147D01*
X162826367Y-126333552D02*
X162883819Y-126276100D01*
X162998724Y-126218647D01*
X163285986Y-126218647D01*
X163400891Y-126276100D01*
X163458343Y-126333552D01*
X163515795Y-126448457D01*
X163515795Y-126563361D01*
X163458343Y-126735719D01*
X162768915Y-127425147D01*
X163515795Y-127425147D01*
X164332224Y-126572433D02*
X164906748Y-126572433D01*
X164217319Y-126917147D02*
X164619486Y-125710647D01*
X165021653Y-126917147D01*
X165308915Y-125710647D02*
X166055795Y-125710647D01*
X165653629Y-126170266D01*
X165825986Y-126170266D01*
X165940891Y-126227719D01*
X165998343Y-126285171D01*
X166055795Y-126400076D01*
X166055795Y-126687338D01*
X165998343Y-126802242D01*
X165940891Y-126859695D01*
X165825986Y-126917147D01*
X165481272Y-126917147D01*
X165366367Y-126859695D01*
X165308915Y-126802242D01*
X166872224Y-127080433D02*
X167446748Y-127080433D01*
X166757319Y-127425147D02*
X167159486Y-126218647D01*
X167561653Y-127425147D01*
X168480891Y-126620814D02*
X168480891Y-127425147D01*
X168193629Y-126161195D02*
X167906367Y-127022980D01*
X168653248Y-127022980D01*
X169412224Y-126572433D02*
X169986748Y-126572433D01*
X169297319Y-126917147D02*
X169699486Y-125710647D01*
X170101653Y-126917147D01*
X171078343Y-125710647D02*
X170503819Y-125710647D01*
X170446367Y-126285171D01*
X170503819Y-126227719D01*
X170618724Y-126170266D01*
X170905986Y-126170266D01*
X171020891Y-126227719D01*
X171078343Y-126285171D01*
X171135795Y-126400076D01*
X171135795Y-126687338D01*
X171078343Y-126802242D01*
X171020891Y-126859695D01*
X170905986Y-126917147D01*
X170618724Y-126917147D01*
X170503819Y-126859695D01*
X170446367Y-126802242D01*
X146452852Y-115929676D02*
X147659352Y-115929676D01*
X147659352Y-116216938D01*
X147601900Y-116389295D01*
X147486995Y-116504200D01*
X147372090Y-116561653D01*
X147142280Y-116619105D01*
X146969923Y-116619105D01*
X146740114Y-116561653D01*
X146625209Y-116504200D01*
X146510304Y-116389295D01*
X146452852Y-116216938D01*
X146452852Y-115929676D01*
X147659352Y-117365986D02*
X147659352Y-117480891D01*
X147601900Y-117595795D01*
X147544447Y-117653248D01*
X147429542Y-117710700D01*
X147199733Y-117768153D01*
X146912471Y-117768153D01*
X146682661Y-117710700D01*
X146567757Y-117653248D01*
X146510304Y-117595795D01*
X146452852Y-117480891D01*
X146452852Y-117365986D01*
X146510304Y-117251081D01*
X146567757Y-117193629D01*
X146682661Y-117136176D01*
X146912471Y-117078724D01*
X147199733Y-117078724D01*
X147429542Y-117136176D01*
X147544447Y-117193629D01*
X147601900Y-117251081D01*
X147659352Y-117365986D01*
X144622852Y-109999676D02*
X145829352Y-109999676D01*
X145829352Y-110286938D01*
X145771900Y-110459295D01*
X145656995Y-110574200D01*
X145542090Y-110631653D01*
X145312280Y-110689105D01*
X145139923Y-110689105D01*
X144910114Y-110631653D01*
X144795209Y-110574200D01*
X144680304Y-110459295D01*
X144622852Y-110286938D01*
X144622852Y-109999676D01*
X145714447Y-111148724D02*
X145771900Y-111206176D01*
X145829352Y-111321081D01*
X145829352Y-111608343D01*
X145771900Y-111723248D01*
X145714447Y-111780700D01*
X145599542Y-111838153D01*
X145484638Y-111838153D01*
X145312280Y-111780700D01*
X144622852Y-111091272D01*
X144622852Y-111838153D01*
X98572852Y-122859676D02*
X99779352Y-122859676D01*
X99779352Y-123146938D01*
X99721900Y-123319295D01*
X99606995Y-123434200D01*
X99492090Y-123491653D01*
X99262280Y-123549105D01*
X99089923Y-123549105D01*
X98860114Y-123491653D01*
X98745209Y-123434200D01*
X98630304Y-123319295D01*
X98572852Y-123146938D01*
X98572852Y-122859676D01*
X99377185Y-124583248D02*
X98572852Y-124583248D01*
X99836804Y-124295986D02*
X98975019Y-124008724D01*
X98975019Y-124755605D01*
X144472852Y-109159676D02*
X145679352Y-109159676D01*
X145679352Y-109446938D01*
X145621900Y-109619295D01*
X145506995Y-109734200D01*
X145392090Y-109791653D01*
X145162280Y-109849105D01*
X144989923Y-109849105D01*
X144760114Y-109791653D01*
X144645209Y-109734200D01*
X144530304Y-109619295D01*
X144472852Y-109446938D01*
X144472852Y-109159676D01*
X145679352Y-110883248D02*
X145679352Y-110653438D01*
X145621900Y-110538534D01*
X145564447Y-110481081D01*
X145392090Y-110366176D01*
X145162280Y-110308724D01*
X144702661Y-110308724D01*
X144587757Y-110366176D01*
X144530304Y-110423629D01*
X144472852Y-110538534D01*
X144472852Y-110768343D01*
X144530304Y-110883248D01*
X144587757Y-110940700D01*
X144702661Y-110998153D01*
X144989923Y-110998153D01*
X145104828Y-110940700D01*
X145162280Y-110883248D01*
X145219733Y-110768343D01*
X145219733Y-110538534D01*
X145162280Y-110423629D01*
X145104828Y-110366176D01*
X144989923Y-110308724D01*
X144472852Y-102682676D02*
X145679352Y-102682676D01*
X145679352Y-102969938D01*
X145621900Y-103142295D01*
X145506995Y-103257200D01*
X145392090Y-103314653D01*
X145162280Y-103372105D01*
X144989923Y-103372105D01*
X144760114Y-103314653D01*
X144645209Y-103257200D01*
X144530304Y-103142295D01*
X144472852Y-102969938D01*
X144472852Y-102682676D01*
X145162280Y-104061534D02*
X145219733Y-103946629D01*
X145277185Y-103889176D01*
X145392090Y-103831724D01*
X145449542Y-103831724D01*
X145564447Y-103889176D01*
X145621900Y-103946629D01*
X145679352Y-104061534D01*
X145679352Y-104291343D01*
X145621900Y-104406248D01*
X145564447Y-104463700D01*
X145449542Y-104521153D01*
X145392090Y-104521153D01*
X145277185Y-104463700D01*
X145219733Y-104406248D01*
X145162280Y-104291343D01*
X145162280Y-104061534D01*
X145104828Y-103946629D01*
X145047376Y-103889176D01*
X144932471Y-103831724D01*
X144702661Y-103831724D01*
X144587757Y-103889176D01*
X144530304Y-103946629D01*
X144472852Y-104061534D01*
X144472852Y-104291343D01*
X144530304Y-104406248D01*
X144587757Y-104463700D01*
X144702661Y-104521153D01*
X144932471Y-104521153D01*
X145047376Y-104463700D01*
X145104828Y-104406248D01*
X145162280Y-104291343D01*
X143964852Y-100142676D02*
X145171352Y-100142676D01*
X145171352Y-100429938D01*
X145113900Y-100602295D01*
X144998995Y-100717200D01*
X144884090Y-100774653D01*
X144654280Y-100832105D01*
X144481923Y-100832105D01*
X144252114Y-100774653D01*
X144137209Y-100717200D01*
X144022304Y-100602295D01*
X143964852Y-100429938D01*
X143964852Y-100142676D01*
X143964852Y-101406629D02*
X143964852Y-101636438D01*
X144022304Y-101751343D01*
X144079757Y-101808795D01*
X144252114Y-101923700D01*
X144481923Y-101981153D01*
X144941542Y-101981153D01*
X145056447Y-101923700D01*
X145113900Y-101866248D01*
X145171352Y-101751343D01*
X145171352Y-101521534D01*
X145113900Y-101406629D01*
X145056447Y-101349176D01*
X144941542Y-101291724D01*
X144654280Y-101291724D01*
X144539376Y-101349176D01*
X144481923Y-101406629D01*
X144424471Y-101521534D01*
X144424471Y-101751343D01*
X144481923Y-101866248D01*
X144539376Y-101923700D01*
X144654280Y-101981153D01*
D13*
X151734195Y-83526830D02*
X151734195Y-82754670D01*
X151918043Y-82754670D01*
X152028351Y-82791440D01*
X152101890Y-82864979D01*
X152138660Y-82938518D01*
X152175429Y-83085596D01*
X152175429Y-83195904D01*
X152138660Y-83342982D01*
X152101890Y-83416521D01*
X152028351Y-83490060D01*
X151918043Y-83526830D01*
X151734195Y-83526830D01*
X152910820Y-83526830D02*
X152469586Y-83526830D01*
X152690203Y-83526830D02*
X152690203Y-82754670D01*
X152616664Y-82864979D01*
X152543125Y-82938518D01*
X152469586Y-82975287D01*
X153388824Y-82754670D02*
X153462363Y-82754670D01*
X153535902Y-82791440D01*
X153572671Y-82828209D01*
X153609441Y-82901748D01*
X153646210Y-83048826D01*
X153646210Y-83232674D01*
X153609441Y-83379752D01*
X153572671Y-83453291D01*
X153535902Y-83490060D01*
X153462363Y-83526830D01*
X153388824Y-83526830D01*
X153315285Y-83490060D01*
X153278515Y-83453291D01*
X153241746Y-83379752D01*
X153204976Y-83232674D01*
X153204976Y-83048826D01*
X153241746Y-82901748D01*
X153278515Y-82828209D01*
X153315285Y-82791440D01*
X153388824Y-82754670D01*
X98044169Y-103424195D02*
X98816329Y-103424195D01*
X98816329Y-103608043D01*
X98779560Y-103718351D01*
X98706020Y-103791890D01*
X98632481Y-103828660D01*
X98485403Y-103865429D01*
X98375095Y-103865429D01*
X98228017Y-103828660D01*
X98154478Y-103791890D01*
X98080939Y-103718351D01*
X98044169Y-103608043D01*
X98044169Y-103424195D01*
X98044169Y-104600820D02*
X98044169Y-104159586D01*
X98044169Y-104380203D02*
X98816329Y-104380203D01*
X98706020Y-104306664D01*
X98632481Y-104233125D01*
X98595712Y-104159586D01*
X98044169Y-105336210D02*
X98044169Y-104894976D01*
X98044169Y-105115593D02*
X98816329Y-105115593D01*
X98706020Y-105042054D01*
X98632481Y-104968515D01*
X98595712Y-104894976D01*
X137334195Y-83376830D02*
X137334195Y-82604670D01*
X137518043Y-82604670D01*
X137628351Y-82641440D01*
X137701890Y-82714979D01*
X137738660Y-82788518D01*
X137775429Y-82935596D01*
X137775429Y-83045904D01*
X137738660Y-83192982D01*
X137701890Y-83266521D01*
X137628351Y-83340060D01*
X137518043Y-83376830D01*
X137334195Y-83376830D01*
X138510820Y-83376830D02*
X138069586Y-83376830D01*
X138290203Y-83376830D02*
X138290203Y-82604670D01*
X138216664Y-82714979D01*
X138143125Y-82788518D01*
X138069586Y-82825287D01*
X138804976Y-82678209D02*
X138841746Y-82641440D01*
X138915285Y-82604670D01*
X139099132Y-82604670D01*
X139172671Y-82641440D01*
X139209441Y-82678209D01*
X139246210Y-82751748D01*
X139246210Y-82825287D01*
X139209441Y-82935596D01*
X138768207Y-83376830D01*
X139246210Y-83376830D01*
X134794195Y-84265830D02*
X134794195Y-83493670D01*
X134978043Y-83493670D01*
X135088351Y-83530440D01*
X135161890Y-83603979D01*
X135198660Y-83677518D01*
X135235429Y-83824596D01*
X135235429Y-83934904D01*
X135198660Y-84081982D01*
X135161890Y-84155521D01*
X135088351Y-84229060D01*
X134978043Y-84265830D01*
X134794195Y-84265830D01*
X135970820Y-84265830D02*
X135529586Y-84265830D01*
X135750203Y-84265830D02*
X135750203Y-83493670D01*
X135676664Y-83603979D01*
X135603125Y-83677518D01*
X135529586Y-83714287D01*
X136228207Y-83493670D02*
X136706210Y-83493670D01*
X136448824Y-83787826D01*
X136559132Y-83787826D01*
X136632671Y-83824596D01*
X136669441Y-83861365D01*
X136706210Y-83934904D01*
X136706210Y-84118752D01*
X136669441Y-84192291D01*
X136632671Y-84229060D01*
X136559132Y-84265830D01*
X136338515Y-84265830D01*
X136264976Y-84229060D01*
X136228207Y-84192291D01*
X130155429Y-84265830D02*
X129898043Y-83898135D01*
X129714195Y-84265830D02*
X129714195Y-83493670D01*
X130008351Y-83493670D01*
X130081890Y-83530440D01*
X130118660Y-83567209D01*
X130155429Y-83640748D01*
X130155429Y-83751057D01*
X130118660Y-83824596D01*
X130081890Y-83861365D01*
X130008351Y-83898135D01*
X129714195Y-83898135D01*
X130486355Y-83861365D02*
X130743742Y-83861365D01*
X130854050Y-84265830D02*
X130486355Y-84265830D01*
X130486355Y-83493670D01*
X130854050Y-83493670D01*
X131442363Y-83861365D02*
X131184976Y-83861365D01*
X131184976Y-84265830D02*
X131184976Y-83493670D01*
X131552671Y-83493670D01*
X130439426Y-83029213D02*
X130807121Y-83029213D01*
X130365887Y-83249830D02*
X130623273Y-82477670D01*
X130880660Y-83249830D01*
X132658660Y-82641440D02*
X132585121Y-82604670D01*
X132474812Y-82604670D01*
X132364504Y-82641440D01*
X132290965Y-82714979D01*
X132254195Y-82788518D01*
X132217426Y-82935596D01*
X132217426Y-83045904D01*
X132254195Y-83192982D01*
X132290965Y-83266521D01*
X132364504Y-83340060D01*
X132474812Y-83376830D01*
X132548351Y-83376830D01*
X132658660Y-83340060D01*
X132695429Y-83303291D01*
X132695429Y-83045904D01*
X132548351Y-83045904D01*
X133026355Y-83376830D02*
X133026355Y-82604670D01*
X133467589Y-83376830D01*
X133467589Y-82604670D01*
X133835285Y-83376830D02*
X133835285Y-82604670D01*
X134019132Y-82604670D01*
X134129441Y-82641440D01*
X134202980Y-82714979D01*
X134239749Y-82788518D01*
X134276519Y-82935596D01*
X134276519Y-83045904D01*
X134239749Y-83192982D01*
X134202980Y-83266521D01*
X134129441Y-83340060D01*
X134019132Y-83376830D01*
X133835285Y-83376830D01*
D11*
X122339100Y-85318600D02*
G75*
G03X124625100Y-87985600I2476500J-190500D01*
G01*
X125006100Y-122021600D02*
G75*
G03X122339100Y-124307600I-190500J-2476500D01*
G01*
X122339100Y-81127600D02*
X122339100Y-85445600D01*
X127419100Y-90779600D02*
X127419100Y-119227600D01*
X122339100Y-124307600D02*
X122339100Y-128879600D01*
X127419100Y-119227600D02*
G75*
G02X124879100Y-122021600I-2667000J-127000D01*
G01*
X127419100Y-90779600D02*
G75*
G03X124625100Y-87985600I-2794000J0D01*
G01*
D13*
X127137426Y-83340060D02*
X127247734Y-83376830D01*
X127431582Y-83376830D01*
X127505121Y-83340060D01*
X127541890Y-83303291D01*
X127578660Y-83229752D01*
X127578660Y-83156213D01*
X127541890Y-83082674D01*
X127505121Y-83045904D01*
X127431582Y-83009135D01*
X127284504Y-82972365D01*
X127210965Y-82935596D01*
X127174195Y-82898826D01*
X127137426Y-82825287D01*
X127137426Y-82751748D01*
X127174195Y-82678209D01*
X127210965Y-82641440D01*
X127284504Y-82604670D01*
X127468351Y-82604670D01*
X127578660Y-82641440D01*
X127909586Y-83376830D02*
X127909586Y-82604670D01*
X128093433Y-82604670D01*
X128203742Y-82641440D01*
X128277281Y-82714979D01*
X128314050Y-82788518D01*
X128350820Y-82935596D01*
X128350820Y-83045904D01*
X128314050Y-83192982D01*
X128277281Y-83266521D01*
X128203742Y-83340060D01*
X128093433Y-83376830D01*
X127909586Y-83376830D01*
X128644976Y-83156213D02*
X129012671Y-83156213D01*
X128571437Y-83376830D02*
X128828824Y-82604670D01*
X129086210Y-83376830D01*
X124597426Y-84229060D02*
X124707734Y-84265830D01*
X124891582Y-84265830D01*
X124965121Y-84229060D01*
X125001890Y-84192291D01*
X125038660Y-84118752D01*
X125038660Y-84045213D01*
X125001890Y-83971674D01*
X124965121Y-83934904D01*
X124891582Y-83898135D01*
X124744504Y-83861365D01*
X124670965Y-83824596D01*
X124634195Y-83787826D01*
X124597426Y-83714287D01*
X124597426Y-83640748D01*
X124634195Y-83567209D01*
X124670965Y-83530440D01*
X124744504Y-83493670D01*
X124928351Y-83493670D01*
X125038660Y-83530440D01*
X125810820Y-84192291D02*
X125774050Y-84229060D01*
X125663742Y-84265830D01*
X125590203Y-84265830D01*
X125479894Y-84229060D01*
X125406355Y-84155521D01*
X125369586Y-84081982D01*
X125332816Y-83934904D01*
X125332816Y-83824596D01*
X125369586Y-83677518D01*
X125406355Y-83603979D01*
X125479894Y-83530440D01*
X125590203Y-83493670D01*
X125663742Y-83493670D01*
X125774050Y-83530440D01*
X125810820Y-83567209D01*
X126509441Y-84265830D02*
X126141746Y-84265830D01*
X126141746Y-83493670D01*
X135810195Y-126556830D02*
X135810195Y-125784670D01*
X136324968Y-125784670D02*
X136472047Y-125784670D01*
X136545586Y-125821440D01*
X136619125Y-125894979D01*
X136655894Y-126042057D01*
X136655894Y-126299443D01*
X136619125Y-126446521D01*
X136545586Y-126520060D01*
X136472047Y-126556830D01*
X136324968Y-126556830D01*
X136251429Y-126520060D01*
X136177890Y-126446521D01*
X136141121Y-126299443D01*
X136141121Y-126042057D01*
X136177890Y-125894979D01*
X136251429Y-125821440D01*
X136324968Y-125784670D01*
X137428054Y-126556830D02*
X137170668Y-126189135D01*
X136986820Y-126556830D02*
X136986820Y-125784670D01*
X137280976Y-125784670D01*
X137354515Y-125821440D01*
X137391285Y-125858209D01*
X137428054Y-125931748D01*
X137428054Y-126042057D01*
X137391285Y-126115596D01*
X137354515Y-126152365D01*
X137280976Y-126189135D01*
X136986820Y-126189135D01*
X137758980Y-126152365D02*
X138016367Y-126152365D01*
X138126675Y-126556830D02*
X137758980Y-126556830D01*
X137758980Y-125784670D01*
X138126675Y-125784670D01*
X138714988Y-126152365D02*
X138457601Y-126152365D01*
X138457601Y-126556830D02*
X138457601Y-125784670D01*
X138825296Y-125784670D01*
D14*
X160130000Y-110270000D02*
X160460000Y-110270000D01*
X160130000Y-103730000D02*
X160130000Y-110270000D01*
X160460000Y-103730000D02*
X160130000Y-103730000D01*
X162870000Y-110270000D02*
X162540000Y-110270000D01*
X162870000Y-103730000D02*
X162870000Y-110270000D01*
X162540000Y-103730000D02*
X162870000Y-103730000D01*
X132342150Y-88872544D02*
G75*
G03X131352331Y-89862281I-2572150J1582544D01*
G01*
X133254448Y-89784499D02*
X132342281Y-88872331D01*
X132264499Y-90774448D02*
X133254448Y-89784499D01*
X131352331Y-89862281D02*
X132264499Y-90774448D01*
X139427456Y-90842150D02*
G75*
G03X138437719Y-89852331I1582544J2572150D01*
G01*
X138515501Y-91754448D02*
X139427669Y-90842281D01*
X137525552Y-90764499D02*
X138515501Y-91754448D01*
X138437719Y-89852331D02*
X137525552Y-90764499D01*
X171790000Y-126300000D02*
X171790000Y-125900000D01*
X171150000Y-126300000D02*
X171790000Y-126300000D01*
X167931000Y-86895000D02*
X168059000Y-87024000D01*
X165715000Y-84680000D02*
X165809000Y-84774000D01*
X168171000Y-86725000D02*
X168264000Y-86819000D01*
X165921000Y-84475000D02*
X166049000Y-84604000D01*
X167931000Y-90395000D02*
X168059000Y-90524000D01*
X165715000Y-88180000D02*
X165809000Y-88274000D01*
X168171000Y-90225000D02*
X168264000Y-90319000D01*
X165921000Y-87975000D02*
X166049000Y-88104000D01*
X167931000Y-93895000D02*
X168059000Y-94024000D01*
X165715000Y-91680000D02*
X165809000Y-91774000D01*
X168171000Y-93725000D02*
X168264000Y-93819000D01*
X165921000Y-91475000D02*
X166049000Y-91604000D01*
X167931000Y-97395000D02*
X168059000Y-97524000D01*
X165715000Y-95180000D02*
X165809000Y-95274000D01*
X168171000Y-97225000D02*
X168264000Y-97319000D01*
X165921000Y-94975000D02*
X166049000Y-95104000D01*
X167931000Y-100895000D02*
X168059000Y-101024000D01*
X165715000Y-98680000D02*
X165809000Y-98774000D01*
X168171000Y-100725000D02*
X168264000Y-100819000D01*
X165921000Y-98475000D02*
X166049000Y-98604000D01*
X167931000Y-104395000D02*
X168059000Y-104524000D01*
X165715000Y-102180000D02*
X165809000Y-102274000D01*
X168171000Y-104225000D02*
X168264000Y-104319000D01*
X165921000Y-101975000D02*
X166049000Y-102104000D01*
X167931000Y-107895000D02*
X168059000Y-108024000D01*
X165715000Y-105680000D02*
X165809000Y-105774000D01*
X168171000Y-107725000D02*
X168264000Y-107819000D01*
X165921000Y-105475000D02*
X166049000Y-105604000D01*
X167931000Y-111395000D02*
X168059000Y-111524000D01*
X165715000Y-109180000D02*
X165809000Y-109274000D01*
X168171000Y-111225000D02*
X168264000Y-111319000D01*
X165921000Y-108975000D02*
X166049000Y-109104000D01*
X167931000Y-114895000D02*
X168059000Y-115024000D01*
X165715000Y-112680000D02*
X165809000Y-112774000D01*
X168171000Y-114725000D02*
X168264000Y-114819000D01*
X165921000Y-112475000D02*
X166049000Y-112604000D01*
X167931000Y-118395000D02*
X168059000Y-118524000D01*
X165715000Y-116180000D02*
X165809000Y-116274000D01*
X168171000Y-118225000D02*
X168264000Y-118319000D01*
X165921000Y-115975000D02*
X166049000Y-116104000D01*
X167931000Y-121895000D02*
X168059000Y-122024000D01*
X165715000Y-119680000D02*
X165809000Y-119774000D01*
X168171000Y-121725000D02*
X168264000Y-121819000D01*
X165921000Y-119475000D02*
X166049000Y-119604000D01*
X163830000Y-83940000D02*
X171550000Y-83940000D01*
X163830000Y-126060000D02*
X171550000Y-126060000D01*
X171550000Y-126060000D02*
X171550000Y-83940000D01*
X163830000Y-126060000D02*
X163830000Y-83940000D01*
X169990000Y-126060000D02*
X169990000Y-83940000D01*
X171090000Y-126060000D02*
X171090000Y-83940000D01*
X168670000Y-85750000D02*
G75*
G03X168670000Y-85750000I-1680000J0D01*
G01*
X168670000Y-89250000D02*
G75*
G03X168670000Y-89250000I-1680000J0D01*
G01*
X168670000Y-92750000D02*
G75*
G03X168670000Y-92750000I-1680000J0D01*
G01*
X168670000Y-96250000D02*
G75*
G03X168670000Y-96250000I-1680000J0D01*
G01*
X168670000Y-99750000D02*
G75*
G03X168670000Y-99750000I-1680000J0D01*
G01*
X168670000Y-103250000D02*
G75*
G03X168670000Y-103250000I-1680000J0D01*
G01*
X168670000Y-106750000D02*
G75*
G03X168670000Y-106750000I-1680000J0D01*
G01*
X168670000Y-110250000D02*
G75*
G03X168670000Y-110250000I-1680000J0D01*
G01*
X168670000Y-113750000D02*
G75*
G03X168670000Y-113750000I-1680000J0D01*
G01*
X168670000Y-117250000D02*
G75*
G03X168670000Y-117250000I-1680000J0D01*
G01*
X168670000Y-120750000D02*
G75*
G03X168670000Y-120750000I-1680000J0D01*
G01*
X168670099Y-124221326D02*
G75*
G02X168430000Y-125116000I-1680099J-28674D01*
G01*
X167879894Y-125675358D02*
G75*
G02X166124000Y-125690000I-889894J1425358D01*
G01*
X165564642Y-125139894D02*
G75*
G02X165550000Y-123384000I1425358J889894D01*
G01*
X166099807Y-122824495D02*
G75*
G02X167881000Y-122825000I890193J-1425505D01*
G01*
X168414721Y-123359736D02*
G75*
G02X168670000Y-124250000I-1424721J-890264D01*
G01*
X140940000Y-114370000D02*
X140610000Y-114370000D01*
X140940000Y-120910000D02*
X140940000Y-114370000D01*
X140610000Y-120910000D02*
X140940000Y-120910000D01*
X138200000Y-114370000D02*
X138530000Y-114370000D01*
X138200000Y-120910000D02*
X138200000Y-114370000D01*
X138530000Y-120910000D02*
X138200000Y-120910000D01*
X141080000Y-104250000D02*
X140750000Y-104250000D01*
X141080000Y-110790000D02*
X141080000Y-104250000D01*
X140750000Y-110790000D02*
X141080000Y-110790000D01*
X138340000Y-104250000D02*
X138670000Y-104250000D01*
X138340000Y-110790000D02*
X138340000Y-104250000D01*
X138670000Y-110790000D02*
X138340000Y-110790000D01*
X155380000Y-87050000D02*
X155380000Y-86720000D01*
X148840000Y-87050000D02*
X155380000Y-87050000D01*
X148840000Y-86720000D02*
X148840000Y-87050000D01*
X155380000Y-84310000D02*
X155380000Y-84640000D01*
X148840000Y-84310000D02*
X155380000Y-84310000D01*
X148840000Y-84640000D02*
X148840000Y-84310000D01*
X136520000Y-84530000D02*
X136190000Y-84530000D01*
X136520000Y-91070000D02*
X136520000Y-84530000D01*
X136190000Y-91070000D02*
X136520000Y-91070000D01*
X133780000Y-84530000D02*
X134110000Y-84530000D01*
X133780000Y-91070000D02*
X133780000Y-84530000D01*
X134110000Y-91070000D02*
X133780000Y-91070000D01*
X138340000Y-100620000D02*
X138670000Y-100620000D01*
X138340000Y-94080000D02*
X138340000Y-100620000D01*
X138670000Y-94080000D02*
X138340000Y-94080000D01*
X141080000Y-100620000D02*
X140750000Y-100620000D01*
X141080000Y-94080000D02*
X141080000Y-100620000D01*
X140750000Y-94080000D02*
X141080000Y-94080000D01*
X159660000Y-97120000D02*
X159330000Y-97120000D01*
X159660000Y-103660000D02*
X159660000Y-97120000D01*
X159330000Y-103660000D02*
X159660000Y-103660000D01*
X156920000Y-97120000D02*
X157250000Y-97120000D01*
X156920000Y-103660000D02*
X156920000Y-97120000D01*
X157250000Y-103660000D02*
X156920000Y-103660000D01*
X161450000Y-94200000D02*
X161450000Y-93870000D01*
X154910000Y-94200000D02*
X161450000Y-94200000D01*
X154910000Y-93870000D02*
X154910000Y-94200000D01*
X161450000Y-91460000D02*
X161450000Y-91790000D01*
X154910000Y-91460000D02*
X161450000Y-91460000D01*
X154910000Y-91790000D02*
X154910000Y-91460000D01*
X161390000Y-90870000D02*
X161390000Y-90540000D01*
X154850000Y-90870000D02*
X161390000Y-90870000D01*
X154850000Y-90540000D02*
X154850000Y-90870000D01*
X161390000Y-88130000D02*
X161390000Y-88460000D01*
X154850000Y-88130000D02*
X161390000Y-88130000D01*
X154850000Y-88460000D02*
X154850000Y-88130000D01*
X151330000Y-123290000D02*
X151330000Y-122960000D01*
X151330000Y-122960000D02*
X157870000Y-122960000D01*
X157870000Y-122960000D02*
X157870000Y-123290000D01*
X151330000Y-125370000D02*
X151330000Y-125700000D01*
X151330000Y-125700000D02*
X157870000Y-125700000D01*
X157870000Y-125700000D02*
X157870000Y-125370000D01*
X148382600Y-114804477D02*
X148382600Y-115301900D01*
X148382600Y-112264477D02*
X148382600Y-113335523D01*
X148382600Y-109724477D02*
X148382600Y-110795523D01*
X148382600Y-107184477D02*
X148382600Y-108255523D01*
X148382600Y-104644477D02*
X148382600Y-105715523D01*
X148382600Y-102104477D02*
X148382600Y-103175523D01*
X148382600Y-99564477D02*
X148382600Y-100635523D01*
X148382600Y-97024477D02*
X148382600Y-98095523D01*
X155037400Y-95555523D02*
X155037400Y-95058100D01*
X155037400Y-98095523D02*
X155037400Y-97024477D01*
X155037400Y-100635523D02*
X155037400Y-99564477D01*
X155037400Y-103175523D02*
X155037400Y-102104477D01*
X155037400Y-105715523D02*
X155037400Y-104644477D01*
X155037400Y-108255523D02*
X155037400Y-107184477D01*
X155037400Y-110795523D02*
X155037400Y-109724477D01*
X155037400Y-113335523D02*
X155037400Y-112264477D01*
X155037400Y-115301900D02*
X155037400Y-114804477D01*
X148382600Y-115301900D02*
X155037400Y-115301900D01*
X148382600Y-95058100D02*
X148382600Y-95555523D01*
X155037400Y-95058100D02*
X148382600Y-95058100D01*
X145185000Y-105590000D02*
X145890000Y-105590000D01*
X143150000Y-105590000D02*
X143855000Y-105590000D01*
X145185000Y-109830000D02*
X145890000Y-109830000D01*
X143150000Y-109830000D02*
X143855000Y-109830000D01*
X145890000Y-109830000D02*
X145890000Y-105590000D01*
X143150000Y-109830000D02*
X143150000Y-105590000D01*
D12*
X157922800Y-117531508D02*
X157922800Y-117100000D01*
X157922800Y-120071508D02*
X157922800Y-119208492D01*
X151217200Y-121748492D02*
X151217200Y-122180000D01*
X151217200Y-119325040D02*
X151217200Y-120071508D01*
X151217200Y-117100000D02*
X151217200Y-117414960D01*
X157922800Y-117100000D02*
X151217200Y-117100000D01*
X157922800Y-122180000D02*
X157922800Y-121748492D01*
X151217200Y-122180000D02*
X157922800Y-122180000D01*
X132081000Y-120671998D02*
G75*
G03X132081000Y-120671998I-381000J0D01*
G01*
X127473001Y-120036999D02*
X135927002Y-120036999D01*
X127473001Y-94782998D02*
X127473001Y-120036999D01*
X135927002Y-94782998D02*
X127473001Y-94782998D01*
X135927002Y-120036999D02*
X135927002Y-94782998D01*
D14*
X145175000Y-95530000D02*
X145880000Y-95530000D01*
X143140000Y-95530000D02*
X143845000Y-95530000D01*
X145175000Y-99770000D02*
X145880000Y-99770000D01*
X143140000Y-99770000D02*
X143845000Y-99770000D01*
X145880000Y-99770000D02*
X145880000Y-95530000D01*
X143140000Y-99770000D02*
X143140000Y-95530000D01*
X145165000Y-100660000D02*
X145870000Y-100660000D01*
X143130000Y-100660000D02*
X143835000Y-100660000D01*
X145165000Y-104900000D02*
X145870000Y-104900000D01*
X143130000Y-104900000D02*
X143835000Y-104900000D01*
X145870000Y-104900000D02*
X145870000Y-100660000D01*
X143130000Y-104900000D02*
X143130000Y-100660000D01*
X145145000Y-110680000D02*
X145850000Y-110680000D01*
X143110000Y-110680000D02*
X143815000Y-110680000D01*
X145145000Y-114920000D02*
X145850000Y-114920000D01*
X143110000Y-114920000D02*
X143815000Y-114920000D01*
X145850000Y-114920000D02*
X145850000Y-110680000D01*
X143110000Y-114920000D02*
X143110000Y-110680000D01*
D15*
X171361100Y-128498600D02*
X171361100Y-129768600D01*
X158026100Y-130403600D02*
X156756100Y-130403600D01*
X156121100Y-129768600D02*
X156756100Y-130403600D01*
X156756100Y-127863600D02*
X156121100Y-128498600D01*
X156121100Y-128498600D02*
X156121100Y-129768600D01*
X159296100Y-130403600D02*
X158661100Y-129768600D01*
X160566100Y-130403600D02*
X159296100Y-130403600D01*
X161201100Y-129768600D02*
X160566100Y-130403600D01*
X160566100Y-127863600D02*
X161201100Y-128498600D01*
X159296100Y-127863600D02*
X160566100Y-127863600D01*
X158661100Y-128498600D02*
X159296100Y-127863600D01*
X158661100Y-129768600D02*
X158026100Y-130403600D01*
X158026100Y-127863600D02*
X158661100Y-128498600D01*
X156756100Y-127863600D02*
X158026100Y-127863600D01*
X165646100Y-130403600D02*
X164376100Y-130403600D01*
X163741100Y-129768600D02*
X164376100Y-130403600D01*
X164376100Y-127863600D02*
X163741100Y-128498600D01*
X161836100Y-130403600D02*
X161201100Y-129768600D01*
X163106100Y-130403600D02*
X161836100Y-130403600D01*
X163741100Y-129768600D02*
X163106100Y-130403600D01*
X163106100Y-127863600D02*
X163741100Y-128498600D01*
X161836100Y-127863600D02*
X163106100Y-127863600D01*
X161201100Y-128498600D02*
X161836100Y-127863600D01*
X166916100Y-130403600D02*
X166281100Y-129768600D01*
X168186100Y-130403600D02*
X166916100Y-130403600D01*
X168821100Y-129768600D02*
X168186100Y-130403600D01*
X168186100Y-127863600D02*
X168821100Y-128498600D01*
X166916100Y-127863600D02*
X168186100Y-127863600D01*
X166281100Y-128498600D02*
X166916100Y-127863600D01*
X166281100Y-129768600D02*
X165646100Y-130403600D01*
X165646100Y-127863600D02*
X166281100Y-128498600D01*
X164376100Y-127863600D02*
X165646100Y-127863600D01*
X169456100Y-130403600D02*
X168821100Y-129768600D01*
X170726100Y-130403600D02*
X169456100Y-130403600D01*
X171361100Y-129768600D02*
X170726100Y-130403600D01*
X170726100Y-127863600D02*
X171361100Y-128498600D01*
X169456100Y-127863600D02*
X170726100Y-127863600D01*
X168821100Y-128498600D02*
X169456100Y-127863600D01*
X151676100Y-79603600D02*
X152946100Y-79603600D01*
X153581100Y-80238600D02*
X152946100Y-79603600D01*
X152946100Y-82143600D02*
X153581100Y-81508600D01*
X151041100Y-80238600D02*
X151676100Y-79603600D01*
X151041100Y-81508600D02*
X151041100Y-80238600D01*
X151676100Y-82143600D02*
X151041100Y-81508600D01*
X152946100Y-82143600D02*
X151676100Y-82143600D01*
X169456100Y-79603600D02*
X170726100Y-79603600D01*
X171361100Y-80238600D02*
X170726100Y-79603600D01*
X170726100Y-82143600D02*
X171361100Y-81508600D01*
X171361100Y-81508600D02*
X171361100Y-80238600D01*
X168186100Y-79603600D02*
X168821100Y-80238600D01*
X166916100Y-79603600D02*
X168186100Y-79603600D01*
X166281100Y-80238600D02*
X166916100Y-79603600D01*
X166916100Y-82143600D02*
X166281100Y-81508600D01*
X168186100Y-82143600D02*
X166916100Y-82143600D01*
X168821100Y-81508600D02*
X168186100Y-82143600D01*
X168821100Y-80238600D02*
X169456100Y-79603600D01*
X169456100Y-82143600D02*
X168821100Y-81508600D01*
X170726100Y-82143600D02*
X169456100Y-82143600D01*
X161836100Y-79603600D02*
X163106100Y-79603600D01*
X163741100Y-80238600D02*
X163106100Y-79603600D01*
X163106100Y-82143600D02*
X163741100Y-81508600D01*
X165646100Y-79603600D02*
X166281100Y-80238600D01*
X164376100Y-79603600D02*
X165646100Y-79603600D01*
X163741100Y-80238600D02*
X164376100Y-79603600D01*
X164376100Y-82143600D02*
X163741100Y-81508600D01*
X165646100Y-82143600D02*
X164376100Y-82143600D01*
X166281100Y-81508600D02*
X165646100Y-82143600D01*
X160566100Y-79603600D02*
X161201100Y-80238600D01*
X159296100Y-79603600D02*
X160566100Y-79603600D01*
X158661100Y-80238600D02*
X159296100Y-79603600D01*
X159296100Y-82143600D02*
X158661100Y-81508600D01*
X160566100Y-82143600D02*
X159296100Y-82143600D01*
X161201100Y-81508600D02*
X160566100Y-82143600D01*
X161201100Y-80238600D02*
X161836100Y-79603600D01*
X161836100Y-82143600D02*
X161201100Y-81508600D01*
X163106100Y-82143600D02*
X161836100Y-82143600D01*
X154216100Y-79603600D02*
X155486100Y-79603600D01*
X156121100Y-80238600D02*
X155486100Y-79603600D01*
X155486100Y-82143600D02*
X156121100Y-81508600D01*
X158026100Y-79603600D02*
X158661100Y-80238600D01*
X156756100Y-79603600D02*
X158026100Y-79603600D01*
X156121100Y-80238600D02*
X156756100Y-79603600D01*
X156756100Y-82143600D02*
X156121100Y-81508600D01*
X158026100Y-82143600D02*
X156756100Y-82143600D01*
X158661100Y-81508600D02*
X158026100Y-82143600D01*
X153581100Y-80238600D02*
X154216100Y-79603600D01*
X154216100Y-82143600D02*
X153581100Y-81508600D01*
X155486100Y-82143600D02*
X154216100Y-82143600D01*
X124752100Y-79603600D02*
X126022100Y-79603600D01*
X126657100Y-80238600D02*
X126022100Y-79603600D01*
X126022100Y-82143600D02*
X126657100Y-81508600D01*
X124117100Y-80238600D02*
X124752100Y-79603600D01*
X124117100Y-81508600D02*
X124117100Y-80238600D01*
X124752100Y-82143600D02*
X124117100Y-81508600D01*
X126022100Y-82143600D02*
X124752100Y-82143600D01*
X127292100Y-79603600D02*
X128562100Y-79603600D01*
X129197100Y-80238600D02*
X128562100Y-79603600D01*
X128562100Y-82143600D02*
X129197100Y-81508600D01*
X126657100Y-80238600D02*
X127292100Y-79603600D01*
X127292100Y-82143600D02*
X126657100Y-81508600D01*
X128562100Y-82143600D02*
X127292100Y-82143600D01*
X129832100Y-79603600D02*
X131102100Y-79603600D01*
X131737100Y-80238600D02*
X131102100Y-79603600D01*
X131102100Y-82143600D02*
X131737100Y-81508600D01*
X129197100Y-80238600D02*
X129832100Y-79603600D01*
X129832100Y-82143600D02*
X129197100Y-81508600D01*
X131102100Y-82143600D02*
X129832100Y-82143600D01*
X147612100Y-79603600D02*
X148882100Y-79603600D01*
X149517100Y-80238600D02*
X148882100Y-79603600D01*
X148882100Y-82143600D02*
X149517100Y-81508600D01*
X149517100Y-81508600D02*
X149517100Y-80238600D01*
X146342100Y-79603600D02*
X146977100Y-80238600D01*
X145072100Y-79603600D02*
X146342100Y-79603600D01*
X144437100Y-80238600D02*
X145072100Y-79603600D01*
X145072100Y-82143600D02*
X144437100Y-81508600D01*
X146342100Y-82143600D02*
X145072100Y-82143600D01*
X146977100Y-81508600D02*
X146342100Y-82143600D01*
X146977100Y-80238600D02*
X147612100Y-79603600D01*
X147612100Y-82143600D02*
X146977100Y-81508600D01*
X148882100Y-82143600D02*
X147612100Y-82143600D01*
X139992100Y-79603600D02*
X141262100Y-79603600D01*
X141897100Y-80238600D02*
X141262100Y-79603600D01*
X141262100Y-82143600D02*
X141897100Y-81508600D01*
X143802100Y-79603600D02*
X144437100Y-80238600D01*
X142532100Y-79603600D02*
X143802100Y-79603600D01*
X141897100Y-80238600D02*
X142532100Y-79603600D01*
X142532100Y-82143600D02*
X141897100Y-81508600D01*
X143802100Y-82143600D02*
X142532100Y-82143600D01*
X144437100Y-81508600D02*
X143802100Y-82143600D01*
X138722100Y-79603600D02*
X139357100Y-80238600D01*
X137452100Y-79603600D02*
X138722100Y-79603600D01*
X136817100Y-80238600D02*
X137452100Y-79603600D01*
X137452100Y-82143600D02*
X136817100Y-81508600D01*
X138722100Y-82143600D02*
X137452100Y-82143600D01*
X139357100Y-81508600D02*
X138722100Y-82143600D01*
X139357100Y-80238600D02*
X139992100Y-79603600D01*
X139992100Y-82143600D02*
X139357100Y-81508600D01*
X141262100Y-82143600D02*
X139992100Y-82143600D01*
X132372100Y-79603600D02*
X133642100Y-79603600D01*
X134277100Y-80238600D02*
X133642100Y-79603600D01*
X133642100Y-82143600D02*
X134277100Y-81508600D01*
X136182100Y-79603600D02*
X136817100Y-80238600D01*
X134912100Y-79603600D02*
X136182100Y-79603600D01*
X134277100Y-80238600D02*
X134912100Y-79603600D01*
X134912100Y-82143600D02*
X134277100Y-81508600D01*
X136182100Y-82143600D02*
X134912100Y-82143600D01*
X136817100Y-81508600D02*
X136182100Y-82143600D01*
X131737100Y-80238600D02*
X132372100Y-79603600D01*
X132372100Y-82143600D02*
X131737100Y-81508600D01*
X133642100Y-82143600D02*
X132372100Y-82143600D01*
X129705100Y-126339600D02*
G75*
G03X129705100Y-126339600I-1778000J0D01*
G01*
X130975100Y-127367600D02*
X130975100Y-125323600D01*
X124879100Y-127337600D02*
X124879100Y-125323600D01*
X130086100Y-123291600D02*
X125768100Y-123291600D01*
X125768100Y-129387600D02*
X130086100Y-129387600D01*
X152946100Y-130403600D02*
X151676100Y-130403600D01*
X151041100Y-129768600D02*
X151676100Y-130403600D01*
X151676100Y-127863600D02*
X151041100Y-128498600D01*
X153581100Y-129768600D02*
X152946100Y-130403600D01*
X153581100Y-128498600D02*
X153581100Y-129768600D01*
X152946100Y-127863600D02*
X153581100Y-128498600D01*
X151676100Y-127863600D02*
X152946100Y-127863600D01*
X135166100Y-130403600D02*
X133896100Y-130403600D01*
X133261100Y-129768600D02*
X133896100Y-130403600D01*
X133896100Y-127863600D02*
X133261100Y-128498600D01*
X133261100Y-128498600D02*
X133261100Y-129768600D01*
X136436100Y-130403600D02*
X135801100Y-129768600D01*
X137706100Y-130403600D02*
X136436100Y-130403600D01*
X138341100Y-129768600D02*
X137706100Y-130403600D01*
X137706100Y-127863600D02*
X138341100Y-128498600D01*
X136436100Y-127863600D02*
X137706100Y-127863600D01*
X135801100Y-128498600D02*
X136436100Y-127863600D01*
X135801100Y-129768600D02*
X135166100Y-130403600D01*
X135166100Y-127863600D02*
X135801100Y-128498600D01*
X133896100Y-127863600D02*
X135166100Y-127863600D01*
X142786100Y-130403600D02*
X141516100Y-130403600D01*
X140881100Y-129768600D02*
X141516100Y-130403600D01*
X141516100Y-127863600D02*
X140881100Y-128498600D01*
X138976100Y-130403600D02*
X138341100Y-129768600D01*
X140246100Y-130403600D02*
X138976100Y-130403600D01*
X140881100Y-129768600D02*
X140246100Y-130403600D01*
X140246100Y-127863600D02*
X140881100Y-128498600D01*
X138976100Y-127863600D02*
X140246100Y-127863600D01*
X138341100Y-128498600D02*
X138976100Y-127863600D01*
X144056100Y-130403600D02*
X143421100Y-129768600D01*
X145326100Y-130403600D02*
X144056100Y-130403600D01*
X145961100Y-129768600D02*
X145326100Y-130403600D01*
X145326100Y-127863600D02*
X145961100Y-128498600D01*
X144056100Y-127863600D02*
X145326100Y-127863600D01*
X143421100Y-128498600D02*
X144056100Y-127863600D01*
X143421100Y-129768600D02*
X142786100Y-130403600D01*
X142786100Y-127863600D02*
X143421100Y-128498600D01*
X141516100Y-127863600D02*
X142786100Y-127863600D01*
X150406100Y-130403600D02*
X149136100Y-130403600D01*
X148501100Y-129768600D02*
X149136100Y-130403600D01*
X149136100Y-127863600D02*
X148501100Y-128498600D01*
X146596100Y-130403600D02*
X145961100Y-129768600D01*
X147866100Y-130403600D02*
X146596100Y-130403600D01*
X148501100Y-129768600D02*
X147866100Y-130403600D01*
X147866100Y-127863600D02*
X148501100Y-128498600D01*
X146596100Y-127863600D02*
X147866100Y-127863600D01*
X145961100Y-128498600D02*
X146596100Y-127863600D01*
X151041100Y-129768600D02*
X150406100Y-130403600D01*
X150406100Y-127863600D02*
X151041100Y-128498600D01*
X149136100Y-127863600D02*
X150406100Y-127863600D01*
D16*
X164322380Y-110976666D02*
X163846190Y-111310000D01*
X164322380Y-111548095D02*
X163322380Y-111548095D01*
X163322380Y-111167142D01*
X163370000Y-111071904D01*
X163417619Y-111024285D01*
X163512857Y-110976666D01*
X163655714Y-110976666D01*
X163750952Y-111024285D01*
X163798571Y-111071904D01*
X163846190Y-111167142D01*
X163846190Y-111548095D01*
X163322380Y-110119523D02*
X163322380Y-110310000D01*
X163370000Y-110405238D01*
X163417619Y-110452857D01*
X163560476Y-110548095D01*
X163750952Y-110595714D01*
X164131904Y-110595714D01*
X164227142Y-110548095D01*
X164274761Y-110500476D01*
X164322380Y-110405238D01*
X164322380Y-110214761D01*
X164274761Y-110119523D01*
X164227142Y-110071904D01*
X164131904Y-110024285D01*
X163893809Y-110024285D01*
X163798571Y-110071904D01*
X163750952Y-110119523D01*
X163703333Y-110214761D01*
X163703333Y-110405238D01*
X163750952Y-110500476D01*
X163798571Y-110548095D01*
X163893809Y-110595714D01*
X129374761Y-91437619D02*
X129279523Y-91390000D01*
X129184285Y-91294761D01*
X129041428Y-91151904D01*
X128946190Y-91104285D01*
X128850952Y-91104285D01*
X128898571Y-91342380D02*
X128803333Y-91294761D01*
X128708095Y-91199523D01*
X128660476Y-91009047D01*
X128660476Y-90675714D01*
X128708095Y-90485238D01*
X128803333Y-90390000D01*
X128898571Y-90342380D01*
X129089047Y-90342380D01*
X129184285Y-90390000D01*
X129279523Y-90485238D01*
X129327142Y-90675714D01*
X129327142Y-91009047D01*
X129279523Y-91199523D01*
X129184285Y-91294761D01*
X129089047Y-91342380D01*
X128898571Y-91342380D01*
X129708095Y-90437619D02*
X129755714Y-90390000D01*
X129850952Y-90342380D01*
X130089047Y-90342380D01*
X130184285Y-90390000D01*
X130231904Y-90437619D01*
X130279523Y-90532857D01*
X130279523Y-90628095D01*
X130231904Y-90770952D01*
X129660476Y-91342380D01*
X130279523Y-91342380D01*
X137957619Y-88065238D02*
X137910000Y-88160476D01*
X137814761Y-88255714D01*
X137671904Y-88398571D01*
X137624285Y-88493809D01*
X137624285Y-88589047D01*
X137862380Y-88541428D02*
X137814761Y-88636666D01*
X137719523Y-88731904D01*
X137529047Y-88779523D01*
X137195714Y-88779523D01*
X137005238Y-88731904D01*
X136910000Y-88636666D01*
X136862380Y-88541428D01*
X136862380Y-88350952D01*
X136910000Y-88255714D01*
X137005238Y-88160476D01*
X137195714Y-88112857D01*
X137529047Y-88112857D01*
X137719523Y-88160476D01*
X137814761Y-88255714D01*
X137862380Y-88350952D01*
X137862380Y-88541428D01*
X137862380Y-87160476D02*
X137862380Y-87731904D01*
X137862380Y-87446190D02*
X136862380Y-87446190D01*
X137005238Y-87541428D01*
X137100476Y-87636666D01*
X137148095Y-87731904D01*
X162282380Y-105333333D02*
X162996666Y-105333333D01*
X163139523Y-105380952D01*
X163234761Y-105476190D01*
X163282380Y-105619047D01*
X163282380Y-105714285D01*
X162282380Y-104952380D02*
X162282380Y-104285714D01*
X163282380Y-104714285D01*
X137792380Y-106416666D02*
X137316190Y-106750000D01*
X137792380Y-106988095D02*
X136792380Y-106988095D01*
X136792380Y-106607142D01*
X136840000Y-106511904D01*
X136887619Y-106464285D01*
X136982857Y-106416666D01*
X137125714Y-106416666D01*
X137220952Y-106464285D01*
X137268571Y-106511904D01*
X137316190Y-106607142D01*
X137316190Y-106988095D01*
X137125714Y-105559523D02*
X137792380Y-105559523D01*
X136744761Y-105797619D02*
X137459047Y-106035714D01*
X137459047Y-105416666D01*
X155753333Y-83762380D02*
X155420000Y-83286190D01*
X155181904Y-83762380D02*
X155181904Y-82762380D01*
X155562857Y-82762380D01*
X155658095Y-82810000D01*
X155705714Y-82857619D01*
X155753333Y-82952857D01*
X155753333Y-83095714D01*
X155705714Y-83190952D01*
X155658095Y-83238571D01*
X155562857Y-83286190D01*
X155181904Y-83286190D01*
X156705714Y-83762380D02*
X156134285Y-83762380D01*
X156420000Y-83762380D02*
X156420000Y-82762380D01*
X156324761Y-82905238D01*
X156229523Y-83000476D01*
X156134285Y-83048095D01*
X133232380Y-84156666D02*
X132756190Y-84490000D01*
X133232380Y-84728095D02*
X132232380Y-84728095D01*
X132232380Y-84347142D01*
X132280000Y-84251904D01*
X132327619Y-84204285D01*
X132422857Y-84156666D01*
X132565714Y-84156666D01*
X132660952Y-84204285D01*
X132708571Y-84251904D01*
X132756190Y-84347142D01*
X132756190Y-84728095D01*
X132327619Y-83775714D02*
X132280000Y-83728095D01*
X132232380Y-83632857D01*
X132232380Y-83394761D01*
X132280000Y-83299523D01*
X132327619Y-83251904D01*
X132422857Y-83204285D01*
X132518095Y-83204285D01*
X132660952Y-83251904D01*
X133232380Y-83823333D01*
X133232380Y-83204285D01*
X140302380Y-95806666D02*
X139826190Y-96140000D01*
X140302380Y-96378095D02*
X139302380Y-96378095D01*
X139302380Y-95997142D01*
X139350000Y-95901904D01*
X139397619Y-95854285D01*
X139492857Y-95806666D01*
X139635714Y-95806666D01*
X139730952Y-95854285D01*
X139778571Y-95901904D01*
X139826190Y-95997142D01*
X139826190Y-96378095D01*
X139302380Y-95473333D02*
X139302380Y-94854285D01*
X139683333Y-95187619D01*
X139683333Y-95044761D01*
X139730952Y-94949523D01*
X139778571Y-94901904D01*
X139873809Y-94854285D01*
X140111904Y-94854285D01*
X140207142Y-94901904D01*
X140254761Y-94949523D01*
X140302380Y-95044761D01*
X140302380Y-95330476D01*
X140254761Y-95425714D01*
X140207142Y-95473333D01*
X156372380Y-96746666D02*
X155896190Y-97080000D01*
X156372380Y-97318095D02*
X155372380Y-97318095D01*
X155372380Y-96937142D01*
X155420000Y-96841904D01*
X155467619Y-96794285D01*
X155562857Y-96746666D01*
X155705714Y-96746666D01*
X155800952Y-96794285D01*
X155848571Y-96841904D01*
X155896190Y-96937142D01*
X155896190Y-97318095D01*
X155372380Y-96413333D02*
X155372380Y-95746666D01*
X156372380Y-96175238D01*
X161823333Y-90912380D02*
X161490000Y-90436190D01*
X161251904Y-90912380D02*
X161251904Y-89912380D01*
X161632857Y-89912380D01*
X161728095Y-89960000D01*
X161775714Y-90007619D01*
X161823333Y-90102857D01*
X161823333Y-90245714D01*
X161775714Y-90340952D01*
X161728095Y-90388571D01*
X161632857Y-90436190D01*
X161251904Y-90436190D01*
X162394761Y-90340952D02*
X162299523Y-90293333D01*
X162251904Y-90245714D01*
X162204285Y-90150476D01*
X162204285Y-90102857D01*
X162251904Y-90007619D01*
X162299523Y-89960000D01*
X162394761Y-89912380D01*
X162585238Y-89912380D01*
X162680476Y-89960000D01*
X162728095Y-90007619D01*
X162775714Y-90102857D01*
X162775714Y-90150476D01*
X162728095Y-90245714D01*
X162680476Y-90293333D01*
X162585238Y-90340952D01*
X162394761Y-90340952D01*
X162299523Y-90388571D01*
X162251904Y-90436190D01*
X162204285Y-90531428D01*
X162204285Y-90721904D01*
X162251904Y-90817142D01*
X162299523Y-90864761D01*
X162394761Y-90912380D01*
X162585238Y-90912380D01*
X162680476Y-90864761D01*
X162728095Y-90817142D01*
X162775714Y-90721904D01*
X162775714Y-90531428D01*
X162728095Y-90436190D01*
X162680476Y-90388571D01*
X162585238Y-90340952D01*
X161763333Y-87582380D02*
X161430000Y-87106190D01*
X161191904Y-87582380D02*
X161191904Y-86582380D01*
X161572857Y-86582380D01*
X161668095Y-86630000D01*
X161715714Y-86677619D01*
X161763333Y-86772857D01*
X161763333Y-86915714D01*
X161715714Y-87010952D01*
X161668095Y-87058571D01*
X161572857Y-87106190D01*
X161191904Y-87106190D01*
X162239523Y-87582380D02*
X162430000Y-87582380D01*
X162525238Y-87534761D01*
X162572857Y-87487142D01*
X162668095Y-87344285D01*
X162715714Y-87153809D01*
X162715714Y-86772857D01*
X162668095Y-86677619D01*
X162620476Y-86630000D01*
X162525238Y-86582380D01*
X162334761Y-86582380D01*
X162239523Y-86630000D01*
X162191904Y-86677619D01*
X162144285Y-86772857D01*
X162144285Y-87010952D01*
X162191904Y-87106190D01*
X162239523Y-87153809D01*
X162334761Y-87201428D01*
X162525238Y-87201428D01*
X162620476Y-87153809D01*
X162668095Y-87106190D01*
X162715714Y-87010952D01*
X147427142Y-123882380D02*
X147093809Y-123406190D01*
X146855714Y-123882380D02*
X146855714Y-122882380D01*
X147236666Y-122882380D01*
X147331904Y-122930000D01*
X147379523Y-122977619D01*
X147427142Y-123072857D01*
X147427142Y-123215714D01*
X147379523Y-123310952D01*
X147331904Y-123358571D01*
X147236666Y-123406190D01*
X146855714Y-123406190D01*
X148379523Y-123882380D02*
X147808095Y-123882380D01*
X148093809Y-123882380D02*
X148093809Y-122882380D01*
X147998571Y-123025238D01*
X147903333Y-123120476D01*
X147808095Y-123168095D01*
X148998571Y-122882380D02*
X149093809Y-122882380D01*
X149189047Y-122930000D01*
X149236666Y-122977619D01*
X149284285Y-123072857D01*
X149331904Y-123263333D01*
X149331904Y-123501428D01*
X149284285Y-123691904D01*
X149236666Y-123787142D01*
X149189047Y-123834761D01*
X149093809Y-123882380D01*
X148998571Y-123882380D01*
X148903333Y-123834761D01*
X148855714Y-123787142D01*
X148808095Y-123691904D01*
X148760476Y-123501428D01*
X148760476Y-123263333D01*
X148808095Y-123072857D01*
X148855714Y-122977619D01*
X148903333Y-122930000D01*
X148998571Y-122882380D01*
X150948095Y-104632380D02*
X150948095Y-105441904D01*
X150995714Y-105537142D01*
X151043333Y-105584761D01*
X151138571Y-105632380D01*
X151329047Y-105632380D01*
X151424285Y-105584761D01*
X151471904Y-105537142D01*
X151519523Y-105441904D01*
X151519523Y-104632380D01*
X152519523Y-105632380D02*
X151948095Y-105632380D01*
X152233809Y-105632380D02*
X152233809Y-104632380D01*
X152138571Y-104775238D01*
X152043333Y-104870476D01*
X151948095Y-104918095D01*
X149519523Y-105632380D02*
X149519523Y-104632380D01*
X150090952Y-105632380D02*
X149662380Y-105060952D01*
X150090952Y-104632380D02*
X149519523Y-105203809D01*
X150662380Y-105060952D02*
X150567142Y-105013333D01*
X150519523Y-104965714D01*
X150471904Y-104870476D01*
X150471904Y-104822857D01*
X150519523Y-104727619D01*
X150567142Y-104680000D01*
X150662380Y-104632380D01*
X150852857Y-104632380D01*
X150948095Y-104680000D01*
X150995714Y-104727619D01*
X151043333Y-104822857D01*
X151043333Y-104870476D01*
X150995714Y-104965714D01*
X150948095Y-105013333D01*
X150852857Y-105060952D01*
X150662380Y-105060952D01*
X150567142Y-105108571D01*
X150519523Y-105156190D01*
X150471904Y-105251428D01*
X150471904Y-105441904D01*
X150519523Y-105537142D01*
X150567142Y-105584761D01*
X150662380Y-105632380D01*
X150852857Y-105632380D01*
X150948095Y-105584761D01*
X150995714Y-105537142D01*
X151043333Y-105441904D01*
X151043333Y-105251428D01*
X150995714Y-105156190D01*
X150948095Y-105108571D01*
X150852857Y-105060952D01*
X151900476Y-104965714D02*
X151900476Y-105632380D01*
X151662380Y-104584761D02*
X151424285Y-105299047D01*
X152043333Y-105299047D01*
X152852857Y-104965714D02*
X152852857Y-105632380D01*
X152614761Y-104584761D02*
X152376666Y-105299047D01*
X152995714Y-105299047D01*
X153376666Y-105632380D02*
X153376666Y-104632380D01*
X153757619Y-104632380D01*
X153852857Y-104680000D01*
X153900476Y-104727619D01*
X153948095Y-104822857D01*
X153948095Y-104965714D01*
X153900476Y-105060952D01*
X153852857Y-105108571D01*
X153757619Y-105156190D01*
X153376666Y-105156190D01*
X155520000Y-114830480D02*
X155520000Y-115068576D01*
X155281904Y-114973338D02*
X155520000Y-115068576D01*
X155758095Y-114973338D01*
X155377142Y-115259052D02*
X155520000Y-115068576D01*
X155662857Y-115259052D01*
X155520000Y-114830480D02*
X155520000Y-115068576D01*
X155281904Y-114973338D02*
X155520000Y-115068576D01*
X155758095Y-114973338D01*
X155377142Y-115259052D02*
X155520000Y-115068576D01*
X155662857Y-115259052D01*
X145877142Y-111336666D02*
X145924761Y-111384285D01*
X145972380Y-111527142D01*
X145972380Y-111622380D01*
X145924761Y-111765238D01*
X145829523Y-111860476D01*
X145734285Y-111908095D01*
X145543809Y-111955714D01*
X145400952Y-111955714D01*
X145210476Y-111908095D01*
X145115238Y-111860476D01*
X145020000Y-111765238D01*
X144972380Y-111622380D01*
X144972380Y-111527142D01*
X145020000Y-111384285D01*
X145067619Y-111336666D01*
X145067619Y-110955714D02*
X145020000Y-110908095D01*
X144972380Y-110812857D01*
X144972380Y-110574761D01*
X145020000Y-110479523D01*
X145067619Y-110431904D01*
X145162857Y-110384285D01*
X145258095Y-110384285D01*
X145400952Y-110431904D01*
X145972380Y-111003333D01*
X145972380Y-110384285D01*
X152831904Y-121314761D02*
X152974761Y-121362380D01*
X153212857Y-121362380D01*
X153308095Y-121314761D01*
X153355714Y-121267142D01*
X153403333Y-121171904D01*
X153403333Y-121076666D01*
X153355714Y-120981428D01*
X153308095Y-120933809D01*
X153212857Y-120886190D01*
X153022380Y-120838571D01*
X152927142Y-120790952D01*
X152879523Y-120743333D01*
X152831904Y-120648095D01*
X152831904Y-120552857D01*
X152879523Y-120457619D01*
X152927142Y-120410000D01*
X153022380Y-120362380D01*
X153260476Y-120362380D01*
X153403333Y-120410000D01*
X153784285Y-121314761D02*
X153927142Y-121362380D01*
X154165238Y-121362380D01*
X154260476Y-121314761D01*
X154308095Y-121267142D01*
X154355714Y-121171904D01*
X154355714Y-121076666D01*
X154308095Y-120981428D01*
X154260476Y-120933809D01*
X154165238Y-120886190D01*
X153974761Y-120838571D01*
X153879523Y-120790952D01*
X153831904Y-120743333D01*
X153784285Y-120648095D01*
X153784285Y-120552857D01*
X153831904Y-120457619D01*
X153879523Y-120410000D01*
X153974761Y-120362380D01*
X154212857Y-120362380D01*
X154355714Y-120410000D01*
X155355714Y-121362380D02*
X155022380Y-120886190D01*
X154784285Y-121362380D02*
X154784285Y-120362380D01*
X155165238Y-120362380D01*
X155260476Y-120410000D01*
X155308095Y-120457619D01*
X155355714Y-120552857D01*
X155355714Y-120695714D01*
X155308095Y-120790952D01*
X155260476Y-120838571D01*
X155165238Y-120886190D01*
X154784285Y-120886190D01*
X156308095Y-121362380D02*
X155736666Y-121362380D01*
X156022380Y-121362380D02*
X156022380Y-120362380D01*
X155927142Y-120505238D01*
X155831904Y-120600476D01*
X155736666Y-120648095D01*
X150974761Y-119806666D02*
X151450952Y-119806666D01*
X150879523Y-120092380D02*
X151212857Y-119092380D01*
X151546190Y-120092380D01*
X152546190Y-120187619D02*
X152450952Y-120140000D01*
X152355714Y-120044761D01*
X152212857Y-119901904D01*
X152117619Y-119854285D01*
X152022380Y-119854285D01*
X152070000Y-120092380D02*
X151974761Y-120044761D01*
X151879523Y-119949523D01*
X151831904Y-119759047D01*
X151831904Y-119425714D01*
X151879523Y-119235238D01*
X151974761Y-119140000D01*
X152070000Y-119092380D01*
X152260476Y-119092380D01*
X152355714Y-119140000D01*
X152450952Y-119235238D01*
X152498571Y-119425714D01*
X152498571Y-119759047D01*
X152450952Y-119949523D01*
X152355714Y-120044761D01*
X152260476Y-120092380D01*
X152070000Y-120092380D01*
X153117619Y-119616190D02*
X153117619Y-120092380D01*
X152784285Y-119092380D02*
X153117619Y-119616190D01*
X153450952Y-119092380D01*
X153736666Y-119187619D02*
X153784285Y-119140000D01*
X153879523Y-119092380D01*
X154117619Y-119092380D01*
X154212857Y-119140000D01*
X154260476Y-119187619D01*
X154308095Y-119282857D01*
X154308095Y-119378095D01*
X154260476Y-119520952D01*
X153689047Y-120092380D01*
X154308095Y-120092380D01*
X155260476Y-120092380D02*
X154689047Y-120092380D01*
X154974761Y-120092380D02*
X154974761Y-119092380D01*
X154879523Y-119235238D01*
X154784285Y-119330476D01*
X154689047Y-119378095D01*
X156212857Y-120092380D02*
X155641428Y-120092380D01*
X155927142Y-120092380D02*
X155927142Y-119092380D01*
X155831904Y-119235238D01*
X155736666Y-119330476D01*
X155641428Y-119378095D01*
X156641428Y-119568571D02*
X156974761Y-119568571D01*
X157117619Y-120092380D02*
X156641428Y-120092380D01*
X156641428Y-119092380D01*
X157117619Y-119092380D01*
X157546190Y-120092380D02*
X157546190Y-119092380D01*
X157546190Y-119568571D02*
X158117619Y-119568571D01*
X158117619Y-120092380D02*
X158117619Y-119092380D01*
X150760000Y-116438080D02*
X150760000Y-116676176D01*
X150521904Y-116580938D02*
X150760000Y-116676176D01*
X150998095Y-116580938D01*
X150617142Y-116866652D02*
X150760000Y-116676176D01*
X150902857Y-116866652D01*
X131152380Y-107743331D02*
X131866666Y-107743331D01*
X132009523Y-107790950D01*
X132104761Y-107886188D01*
X132152380Y-108029045D01*
X132152380Y-108124283D01*
X131485714Y-106838569D02*
X132152380Y-106838569D01*
X131104761Y-107076664D02*
X131819047Y-107314759D01*
X131819047Y-106695712D01*
X131247619Y-111171902D02*
X131200000Y-111124283D01*
X131152380Y-111029045D01*
X131152380Y-110790950D01*
X131200000Y-110695712D01*
X131247619Y-110648093D01*
X131342857Y-110600474D01*
X131438095Y-110600474D01*
X131580952Y-110648093D01*
X132152380Y-111219521D01*
X132152380Y-110600474D01*
X131580952Y-110029045D02*
X131533333Y-110124283D01*
X131485714Y-110171902D01*
X131390476Y-110219521D01*
X131342857Y-110219521D01*
X131247619Y-110171902D01*
X131200000Y-110124283D01*
X131152380Y-110029045D01*
X131152380Y-109838569D01*
X131200000Y-109743331D01*
X131247619Y-109695712D01*
X131342857Y-109648093D01*
X131390476Y-109648093D01*
X131485714Y-109695712D01*
X131533333Y-109743331D01*
X131580952Y-109838569D01*
X131580952Y-110029045D01*
X131628571Y-110124283D01*
X131676190Y-110171902D01*
X131771428Y-110219521D01*
X131961904Y-110219521D01*
X132057142Y-110171902D01*
X132104761Y-110124283D01*
X132152380Y-110029045D01*
X132152380Y-109838569D01*
X132104761Y-109743331D01*
X132057142Y-109695712D01*
X131961904Y-109648093D01*
X131771428Y-109648093D01*
X131676190Y-109695712D01*
X131628571Y-109743331D01*
X131580952Y-109838569D01*
X131485714Y-108790950D02*
X132152380Y-108790950D01*
X131104761Y-109029045D02*
X131819047Y-109267140D01*
X131819047Y-108648093D01*
X131152380Y-108362378D02*
X131152380Y-107743331D01*
X131533333Y-108076664D01*
X131533333Y-107933807D01*
X131580952Y-107838569D01*
X131628571Y-107790950D01*
X131723809Y-107743331D01*
X131961904Y-107743331D01*
X132057142Y-107790950D01*
X132104761Y-107838569D01*
X132152380Y-107933807D01*
X132152380Y-108219521D01*
X132104761Y-108314759D01*
X132057142Y-108362378D01*
X132152380Y-107267140D02*
X132152380Y-107076664D01*
X132104761Y-106981426D01*
X132057142Y-106933807D01*
X131914285Y-106838569D01*
X131723809Y-106790950D01*
X131342857Y-106790950D01*
X131247619Y-106838569D01*
X131200000Y-106886188D01*
X131152380Y-106981426D01*
X131152380Y-107171902D01*
X131200000Y-107267140D01*
X131247619Y-107314759D01*
X131342857Y-107362378D01*
X131580952Y-107362378D01*
X131676190Y-107314759D01*
X131723809Y-107267140D01*
X131771428Y-107171902D01*
X131771428Y-106981426D01*
X131723809Y-106886188D01*
X131676190Y-106838569D01*
X131580952Y-106790950D01*
X132152380Y-105838569D02*
X132152380Y-106409998D01*
X132152380Y-106124283D02*
X131152380Y-106124283D01*
X131295238Y-106219521D01*
X131390476Y-106314759D01*
X131438095Y-106409998D01*
X131771428Y-105409998D02*
X131771428Y-104648093D01*
X131152380Y-104267140D02*
X131152380Y-103600474D01*
X132152380Y-104029045D01*
X131152380Y-118010000D02*
X131390476Y-118010000D01*
X131295238Y-118248095D02*
X131390476Y-118010000D01*
X131295238Y-117771904D01*
X131580952Y-118152857D02*
X131390476Y-118010000D01*
X131580952Y-117867142D01*
X142287142Y-99606666D02*
X142334761Y-99654285D01*
X142382380Y-99797142D01*
X142382380Y-99892380D01*
X142334761Y-100035238D01*
X142239523Y-100130476D01*
X142144285Y-100178095D01*
X141953809Y-100225714D01*
X141810952Y-100225714D01*
X141620476Y-100178095D01*
X141525238Y-100130476D01*
X141430000Y-100035238D01*
X141382380Y-99892380D01*
X141382380Y-99797142D01*
X141430000Y-99654285D01*
X141477619Y-99606666D01*
X141715714Y-98749523D02*
X142382380Y-98749523D01*
X141334761Y-98987619D02*
X142049047Y-99225714D01*
X142049047Y-98606666D01*
X145747142Y-106446666D02*
X145794761Y-106494285D01*
X145842380Y-106637142D01*
X145842380Y-106732380D01*
X145794761Y-106875238D01*
X145699523Y-106970476D01*
X145604285Y-107018095D01*
X145413809Y-107065714D01*
X145270952Y-107065714D01*
X145080476Y-107018095D01*
X144985238Y-106970476D01*
X144890000Y-106875238D01*
X144842380Y-106732380D01*
X144842380Y-106637142D01*
X144890000Y-106494285D01*
X144937619Y-106446666D01*
X144842380Y-106113333D02*
X144842380Y-105494285D01*
X145223333Y-105827619D01*
X145223333Y-105684761D01*
X145270952Y-105589523D01*
X145318571Y-105541904D01*
X145413809Y-105494285D01*
X145651904Y-105494285D01*
X145747142Y-105541904D01*
X145794761Y-105589523D01*
X145842380Y-105684761D01*
X145842380Y-105970476D01*
X145794761Y-106065714D01*
X145747142Y-106113333D01*
X142337142Y-112966666D02*
X142384761Y-113014285D01*
X142432380Y-113157142D01*
X142432380Y-113252380D01*
X142384761Y-113395238D01*
X142289523Y-113490476D01*
X142194285Y-113538095D01*
X142003809Y-113585714D01*
X141860952Y-113585714D01*
X141670476Y-113538095D01*
X141575238Y-113490476D01*
X141480000Y-113395238D01*
X141432380Y-113252380D01*
X141432380Y-113157142D01*
X141480000Y-113014285D01*
X141527619Y-112966666D01*
X142432380Y-112014285D02*
X142432380Y-112585714D01*
X142432380Y-112300000D02*
X141432380Y-112300000D01*
X141575238Y-112395238D01*
X141670476Y-112490476D01*
X141718095Y-112585714D01*
D17*
X156759426Y-126040847D02*
X156759426Y-126902633D01*
X156701973Y-127074990D01*
X156587069Y-127189895D01*
X156414711Y-127247347D01*
X156299807Y-127247347D01*
X157276497Y-126155752D02*
X157333950Y-126098300D01*
X157448854Y-126040847D01*
X157736116Y-126040847D01*
X157851021Y-126098300D01*
X157908473Y-126155752D01*
X157965926Y-126270657D01*
X157965926Y-126385561D01*
X157908473Y-126557919D01*
X157219045Y-127247347D01*
X157965926Y-127247347D01*
X169918440Y-82644947D02*
X169918440Y-83506733D01*
X169860988Y-83679090D01*
X169746083Y-83793995D01*
X169573726Y-83851447D01*
X169458821Y-83851447D01*
X171124940Y-83851447D02*
X170435511Y-83851447D01*
X170780226Y-83851447D02*
X170780226Y-82644947D01*
X170665321Y-82817304D01*
X170550416Y-82932209D01*
X170435511Y-82989661D01*
X148074440Y-82644947D02*
X148074440Y-83506733D01*
X148016988Y-83679090D01*
X147902083Y-83793995D01*
X147729726Y-83851447D01*
X147614821Y-83851447D01*
X148534059Y-82644947D02*
X149280940Y-82644947D01*
X148878773Y-83104566D01*
X149051130Y-83104566D01*
X149166035Y-83162019D01*
X149223488Y-83219471D01*
X149280940Y-83334376D01*
X149280940Y-83621638D01*
X149223488Y-83736542D01*
X149166035Y-83793995D01*
X149051130Y-83851447D01*
X148706416Y-83851447D01*
X148591511Y-83793995D01*
X148534059Y-83736542D01*
X128316264Y-131241195D02*
X128488621Y-131298647D01*
X128775883Y-131298647D01*
X128890788Y-131241195D01*
X128948240Y-131183742D01*
X129005692Y-131068838D01*
X129005692Y-130953933D01*
X128948240Y-130839028D01*
X128890788Y-130781576D01*
X128775883Y-130724123D01*
X128546073Y-130666671D01*
X128431169Y-130609219D01*
X128373716Y-130551766D01*
X128316264Y-130436861D01*
X128316264Y-130321957D01*
X128373716Y-130207052D01*
X128431169Y-130149600D01*
X128546073Y-130092147D01*
X128833335Y-130092147D01*
X129005692Y-130149600D01*
X130154740Y-131298647D02*
X129465311Y-131298647D01*
X129810026Y-131298647D02*
X129810026Y-130092147D01*
X129695121Y-130264504D01*
X129580216Y-130379409D01*
X129465311Y-130436861D01*
X133554711Y-127247347D02*
X133554711Y-126040847D01*
X134014330Y-126040847D01*
X134129235Y-126098300D01*
X134186688Y-126155752D01*
X134244140Y-126270657D01*
X134244140Y-126443014D01*
X134186688Y-126557919D01*
X134129235Y-126615371D01*
X134014330Y-126672823D01*
X133554711Y-126672823D01*
X134991021Y-126040847D02*
X135220830Y-126040847D01*
X135335735Y-126098300D01*
X135450640Y-126213204D01*
X135508092Y-126443014D01*
X135508092Y-126845180D01*
X135450640Y-127074990D01*
X135335735Y-127189895D01*
X135220830Y-127247347D01*
X134991021Y-127247347D01*
X134876116Y-127189895D01*
X134761211Y-127074990D01*
X134703759Y-126845180D01*
X134703759Y-126443014D01*
X134761211Y-126213204D01*
X134876116Y-126098300D01*
X134991021Y-126040847D01*
X135910259Y-126040847D02*
X136197521Y-127247347D01*
X136427330Y-126385561D01*
X136657140Y-127247347D01*
X136944402Y-126040847D01*
X137404021Y-126615371D02*
X137806188Y-126615371D01*
X137978545Y-127247347D02*
X137404021Y-127247347D01*
X137404021Y-126040847D01*
X137978545Y-126040847D01*
X139185045Y-127247347D02*
X138782878Y-126672823D01*
X138495616Y-127247347D02*
X138495616Y-126040847D01*
X138955235Y-126040847D01*
X139070140Y-126098300D01*
X139127592Y-126155752D01*
X139185045Y-126270657D01*
X139185045Y-126443014D01*
X139127592Y-126557919D01*
X139070140Y-126615371D01*
X138955235Y-126672823D01*
X138495616Y-126672823D01*
X140334092Y-127247347D02*
X139644664Y-127247347D01*
X139989378Y-127247347D02*
X139989378Y-126040847D01*
X139874473Y-126213204D01*
X139759569Y-126328109D01*
X139644664Y-126385561D01*
M02*
