M48
; DRILL file {KiCad (5.1.5)-3} date 9/12/2021 1:17:13 PM
; FORMAT={-:-/ absolute / inch / decimal}
; #@! TF.CreationDate,2021-09-12T13:17:13-04:00
; #@! TF.GenerationSoftware,Kicad,Pcbnew,(5.1.5)-3
; #@! TF.FileFunction,Plated,1,2,PTH
FMAT,2
INCH
T1C0.0230
T2C0.0276
T3C0.0290
T4C0.0315
T5C0.0400
T6C0.0472
T7C0.0480
%
G90
G05
T1
X5.8228Y-3.7909
X5.8228Y-3.8909
X5.8228Y-3.9909
X5.8228Y-4.0909
X5.8228Y-4.1909
X5.8228Y-4.2909
X5.8228Y-4.3909
X5.8228Y-4.4909
X6.1228Y-3.7909
X6.1228Y-3.8909
X6.1228Y-3.9909
X6.1228Y-4.0909
X6.1228Y-4.1909
X6.1228Y-4.2909
X6.1228Y-4.3909
X6.1228Y-4.4909
T2
X5.5516Y-3.4252
X5.5516Y-3.5252
X5.6016Y-3.4752
X5.0591Y-3.4366
X5.1091Y-3.3866
X5.1591Y-3.4366
T3
X5.9354Y-4.6602
X5.9354Y-4.7602
X6.2354Y-4.6602
X6.2354Y-4.7602
T4
X6.0776Y-3.6547
X6.3776Y-3.6547
X5.689Y-3.9972
X5.689Y-4.0957
X6.3583Y-4.0626
X6.3583Y-4.3626
X5.9366Y-4.8949
X6.2366Y-4.8949
X5.3209Y-3.3067
X5.3209Y-3.6067
X6.2319Y-3.8024
X6.2319Y-4.1024
X6.0752Y-3.5236
X6.3752Y-3.5236
X5.4949Y-4.4815
X5.4949Y-4.7815
X5.8386Y-3.3732
X6.1386Y-3.3732
X5.6898Y-4.1913
X5.6898Y-4.2898
X5.5004Y-3.6827
X5.5004Y-3.9827
X5.6882Y-4.3917
X5.6882Y-4.4902
X5.5004Y-4.0831
X5.5004Y-4.3831
X5.6894Y-3.7953
X5.6894Y-3.8937
T5
X4.9085Y-4.885
X4.9085Y-5.063
X5.1645Y-4.885
X5.1645Y-5.063
X5.9965Y-3.184
X6.0965Y-3.184
X6.1965Y-3.184
X6.2965Y-3.184
X6.3965Y-3.184
X6.4965Y-3.184
X6.5965Y-3.184
X6.6965Y-3.184
X6.1965Y-5.084
X6.2965Y-5.084
X6.3965Y-5.084
X6.4965Y-5.084
X6.5965Y-5.084
X6.6965Y-5.084
X4.9365Y-3.184
X5.0365Y-3.184
X5.1365Y-3.184
X5.2365Y-3.184
X5.3365Y-3.184
X5.4365Y-3.184
X5.5365Y-3.184
X5.6365Y-3.184
X5.7365Y-3.184
X5.8365Y-3.184
X5.2965Y-5.084
X5.3965Y-5.084
X5.4965Y-5.084
X5.5965Y-5.084
X5.6965Y-5.084
X5.7965Y-5.084
X5.8965Y-5.084
X5.9965Y-5.084
T6
X6.5744Y-3.376
X6.5744Y-3.5138
X6.5744Y-3.6516
X6.5744Y-3.7894
X6.5744Y-3.9272
X6.5744Y-4.065
X6.5744Y-4.2028
X6.5744Y-4.3406
X6.5744Y-4.4783
X6.5744Y-4.6161
X6.5744Y-4.7539
X6.5744Y-4.8917
T7
X5.185Y-3.8193
X5.185Y-3.9571
X5.185Y-4.0949
X5.185Y-4.2327
X5.185Y-4.3705
X5.185Y-4.5083
X5.185Y-4.6461
T0
M30
