G04 #@! TF.GenerationSoftware,KiCad,Pcbnew,(5.1.5)-3*
G04 #@! TF.CreationDate,2021-09-12T13:17:19-04:00*
G04 #@! TF.ProjectId,EtherTenFuranceMonitorRev2,45746865-7254-4656-9e46-7572616e6365,rev?*
G04 #@! TF.SameCoordinates,Original*
G04 #@! TF.FileFunction,Copper,L1,Top*
G04 #@! TF.FilePolarity,Positive*
%FSLAX46Y46*%
G04 Gerber Fmt 4.6, Leading zero omitted, Abs format (unit mm)*
G04 Created by KiCad (PCBNEW (5.1.5)-3) date 2021-09-12 13:17:19*
%MOMM*%
%LPD*%
G04 APERTURE LIST*
%ADD10O,1.600000X1.600000*%
%ADD11C,1.600000*%
%ADD12O,1.200000X1.200000*%
%ADD13O,1.600000X1.200000*%
%ADD14O,1.200000X1.600000*%
%ADD15C,2.400000*%
%ADD16R,2.400000X2.400000*%
%ADD17C,1.092200*%
%ADD18C,1.244600*%
%ADD19R,1.244600X1.244600*%
%ADD20C,1.727200*%
%ADD21C,1.524000*%
%ADD22R,1.524000X1.524000*%
%ADD23C,0.250000*%
G04 APERTURE END LIST*
D10*
X161500000Y-110810000D03*
D11*
X161500000Y-103190000D03*
D12*
X128500000Y-87290000D03*
X129770000Y-86020000D03*
D13*
X131040000Y-87290000D03*
D12*
X141010000Y-87000000D03*
X142280000Y-88270000D03*
D14*
X141010000Y-89540000D03*
D15*
X166990000Y-85750000D03*
X166990000Y-89250000D03*
X166990000Y-92750000D03*
X166990000Y-96250000D03*
X166990000Y-99750000D03*
X166990000Y-103250000D03*
X166990000Y-106750000D03*
X166990000Y-110250000D03*
X166990000Y-113750000D03*
X166990000Y-117250000D03*
X166990000Y-120750000D03*
D16*
X166990000Y-124250000D03*
D10*
X139570000Y-113830000D03*
D11*
X139570000Y-121450000D03*
D10*
X139710000Y-103710000D03*
D11*
X139710000Y-111330000D03*
D10*
X155920000Y-85680000D03*
D11*
X148300000Y-85680000D03*
D10*
X135150000Y-83990000D03*
D11*
X135150000Y-91610000D03*
D10*
X139710000Y-101160000D03*
D11*
X139710000Y-93540000D03*
D10*
X158290000Y-96580000D03*
D11*
X158290000Y-104200000D03*
D10*
X161990000Y-92830000D03*
D11*
X154370000Y-92830000D03*
D10*
X161930000Y-89500000D03*
D11*
X154310000Y-89500000D03*
X150790000Y-124330000D03*
D10*
X158410000Y-124330000D03*
D17*
X147900000Y-114070000D03*
X147900000Y-111530000D03*
X147900000Y-108990000D03*
X147900000Y-106450000D03*
X147900000Y-103910000D03*
X147900000Y-101370000D03*
X147900000Y-98830000D03*
X147900000Y-96290000D03*
X155520000Y-96290000D03*
X155520000Y-98830000D03*
X155520000Y-101370000D03*
X155520000Y-103910000D03*
X155520000Y-106450000D03*
X155520000Y-108990000D03*
X155520000Y-111530000D03*
X155520000Y-114070000D03*
D11*
X144520000Y-106460000D03*
X144520000Y-108960000D03*
D18*
X158380000Y-118370000D03*
X158380000Y-120910000D03*
X150760000Y-120910000D03*
D19*
X150760000Y-118370000D03*
D20*
X131700000Y-97009996D03*
X131700000Y-100509997D03*
X131700000Y-104009998D03*
X131700000Y-107509998D03*
X131700000Y-111009999D03*
X131700000Y-114509999D03*
X131700000Y-118010000D03*
D11*
X144510000Y-96400000D03*
X144510000Y-98900000D03*
X144500000Y-101530000D03*
X144500000Y-104030000D03*
X144480000Y-111550000D03*
X144480000Y-114050000D03*
D21*
X170091100Y-129133600D03*
X167551100Y-129133600D03*
X165011100Y-129133600D03*
X162471100Y-129133600D03*
X159931100Y-129133600D03*
X157391100Y-129133600D03*
X152311100Y-80873600D03*
X154851100Y-80873600D03*
X157391100Y-80873600D03*
X159931100Y-80873600D03*
X162471100Y-80873600D03*
X165011100Y-80873600D03*
X167551100Y-80873600D03*
D22*
X170091100Y-80873600D03*
D21*
X125387100Y-80873600D03*
X127927100Y-80873600D03*
X130467100Y-80873600D03*
X133007100Y-80873600D03*
X135547100Y-80873600D03*
X138087100Y-80873600D03*
X140627100Y-80873600D03*
X143167100Y-80873600D03*
X145707100Y-80873600D03*
X148247100Y-80873600D03*
X124675900Y-124079000D03*
X131178300Y-124079000D03*
X124675900Y-128600200D03*
X131178300Y-128600200D03*
X152311100Y-129133600D03*
X149771100Y-129133600D03*
X147231100Y-129133600D03*
X144691100Y-129133600D03*
X142151100Y-129133600D03*
X139611100Y-129133600D03*
X137071100Y-129133600D03*
D22*
X134531100Y-129133600D03*
D23*
X134556500Y-124079000D02*
X139611100Y-129133600D01*
X131178300Y-124079000D02*
X134556500Y-124079000D01*
X124675900Y-124079000D02*
X131178300Y-124079000D01*
X145707100Y-89782900D02*
X145707100Y-80873600D01*
X136570000Y-98920000D02*
X145707100Y-89782900D01*
X144480000Y-114050000D02*
X136570000Y-106140000D01*
X136570000Y-106140000D02*
X136570000Y-98920000D01*
X146790000Y-82330700D02*
X146790000Y-89540000D01*
X142030000Y-108960000D02*
X144520000Y-108960000D01*
X137270000Y-104200000D02*
X142030000Y-108960000D01*
X146790000Y-89540000D02*
X137270000Y-99060000D01*
X148247100Y-80873600D02*
X146790000Y-82330700D01*
X137270000Y-99060000D02*
X137270000Y-104200000D01*
X138200000Y-99070000D02*
X138200000Y-104250000D01*
X152311100Y-84958900D02*
X138200000Y-99070000D01*
X152311100Y-80873600D02*
X152311100Y-84958900D01*
X139400000Y-105450000D02*
X143080000Y-105450000D01*
X138200000Y-104250000D02*
X139400000Y-105450000D01*
X143080000Y-105450000D02*
X144500000Y-104030000D01*
X144510000Y-98900000D02*
X145840000Y-97570000D01*
X145840000Y-97570000D02*
X145840000Y-92630000D01*
X145840000Y-92630000D02*
X154851100Y-83618900D01*
X154851100Y-83618900D02*
X154851100Y-80873600D01*
X162471100Y-80873600D02*
X161014700Y-82330000D01*
X145260000Y-100180000D02*
X143240000Y-100180000D01*
X161014700Y-82330000D02*
X161000000Y-82330000D01*
X161000000Y-82330000D02*
X160480000Y-82850000D01*
X160480000Y-82850000D02*
X156600000Y-82850000D01*
X156600000Y-82850000D02*
X146770000Y-92680000D01*
X146770000Y-92680000D02*
X146770000Y-98670000D01*
X146770000Y-98670000D02*
X145260000Y-100180000D01*
X143240000Y-100180000D02*
X139710000Y-103710000D01*
X168187500Y-127230000D02*
X170091100Y-129133600D01*
X158410000Y-124330000D02*
X159541370Y-124330000D01*
X162441370Y-127230000D02*
X168187500Y-127230000D01*
X159541370Y-124330000D02*
X162441370Y-127230000D01*
X157391100Y-129133600D02*
X155097500Y-126840000D01*
X155097500Y-126840000D02*
X150350000Y-126840000D01*
X139570000Y-116060000D02*
X139570000Y-113830000D01*
X150350000Y-126840000D02*
X139570000Y-116060000D01*
X128500000Y-97309997D02*
X131700000Y-100509997D01*
X128500000Y-87290000D02*
X128500000Y-97309997D01*
X131040000Y-91540000D02*
X131040000Y-87290000D01*
X133860000Y-94360000D02*
X131040000Y-91540000D01*
X131700000Y-104009998D02*
X133860000Y-101849998D01*
X133860000Y-101849998D02*
X133860000Y-94360000D01*
X162180000Y-89250000D02*
X161930000Y-89500000D01*
X166990000Y-89250000D02*
X162180000Y-89250000D01*
X166910000Y-92830000D02*
X166990000Y-92750000D01*
X161990000Y-92830000D02*
X166910000Y-92830000D01*
X163820000Y-96580000D02*
X158290000Y-96580000D01*
X166990000Y-99750000D02*
X163820000Y-96580000D01*
X162060000Y-110250000D02*
X161500000Y-110810000D01*
X166990000Y-110250000D02*
X162060000Y-110250000D01*
X155520000Y-98830000D02*
X154300000Y-100050000D01*
X154300000Y-102690000D02*
X155520000Y-103910000D01*
X154300000Y-100050000D02*
X154300000Y-102690000D01*
X155520000Y-103910000D02*
X156800000Y-105190000D01*
X156800000Y-107710000D02*
X155520000Y-108990000D01*
X156800000Y-105190000D02*
X156800000Y-107710000D01*
X156940000Y-112650000D02*
X155520000Y-114070000D01*
X155520000Y-108990000D02*
X156940000Y-110410000D01*
X156940000Y-110410000D02*
X156940000Y-112650000D01*
X166670000Y-114070000D02*
X166990000Y-113750000D01*
X155520000Y-114070000D02*
X166670000Y-114070000D01*
X149887700Y-118370000D02*
X148950000Y-119307700D01*
X150760000Y-118370000D02*
X149887700Y-118370000D01*
X148950000Y-122490000D02*
X150790000Y-124330000D01*
X148950000Y-119307700D02*
X148950000Y-122490000D01*
X136130000Y-118010000D02*
X139570000Y-121450000D01*
X131700000Y-118010000D02*
X136130000Y-118010000D01*
X144691100Y-126571100D02*
X139570000Y-121450000D01*
X144691100Y-129133600D02*
X144691100Y-126571100D01*
X138380000Y-111330000D02*
X139710000Y-111330000D01*
X131700000Y-118010000D02*
X138380000Y-111330000D01*
X155520000Y-97210000D02*
X161500000Y-103190000D01*
X155520000Y-96290000D02*
X155520000Y-97210000D01*
X155520000Y-101430000D02*
X155520000Y-101370000D01*
X158290000Y-104200000D02*
X155520000Y-101430000D01*
X154973901Y-105903901D02*
X155520000Y-106450000D01*
X153220000Y-104150000D02*
X154973901Y-105903901D01*
X154370000Y-92830000D02*
X153220000Y-93980000D01*
X153220000Y-93980000D02*
X153220000Y-104150000D01*
X154973901Y-110983901D02*
X155520000Y-111530000D01*
X151910000Y-107920000D02*
X154973901Y-110983901D01*
X154310000Y-89500000D02*
X151910000Y-91900000D01*
X151910000Y-91900000D02*
X151910000Y-107920000D01*
X138160000Y-87000000D02*
X141010000Y-87000000D01*
X135150000Y-83990000D02*
X138160000Y-87000000D01*
X134850000Y-91610000D02*
X135150000Y-91610000D01*
X129770000Y-86020000D02*
X132800000Y-86020000D01*
X135150000Y-88370000D02*
X135150000Y-91610000D01*
X132800000Y-86020000D02*
X135150000Y-88370000D01*
X158540000Y-120750000D02*
X158380000Y-120910000D01*
X166990000Y-120750000D02*
X158540000Y-120750000D01*
M02*
